<svg width="79" height="79" viewBox="0 0 79 79" fill="none" xmlns="http://www.w3.org/2000/svg">
<path d="M48.7572 53.3875C48.452 53.3875 48.1538 53.4779 47.9001 53.6475C47.6463 53.817 47.4486 54.058 47.3318 54.3399C47.2151 54.6218 47.1845 54.932 47.244 55.2313C47.3036 55.5306 47.4505 55.8055 47.6663 56.0212C47.882 56.237 48.1569 56.3839 48.4562 56.4435C48.7555 56.503 49.0657 56.4725 49.3476 56.3557C49.6295 56.2389 49.8705 56.0412 50.04 55.7875C50.2095 55.5337 50.3 55.2354 50.3 54.9303C50.3 54.5211 50.1375 54.1287 49.8481 53.8394C49.5588 53.55 49.1664 53.3875 48.7572 53.3875Z" fill="#4C519F"/>
<path d="M71.286 0H7.71405C5.66894 0.0025619 3.70833 0.816119 2.26222 2.26224C0.816112 3.70836 0.00256188 5.66899 0 7.71411V54.9303C0.00237891 56.9755 0.815848 58.9364 2.26198 60.3826C3.70811 61.8289 5.66882 62.6425 7.71405 62.6451H31.7856V69.7431H30.2428C28.1971 69.7438 26.2355 70.5568 24.789 72.0033C23.3424 73.4498 22.5295 75.4115 22.5287 77.4572C22.5287 77.8662 22.6912 78.2586 22.9804 78.5479C23.2696 78.8372 23.6618 78.9998 24.0709 79H54.9298C55.339 79 55.7314 78.8375 56.0208 78.5481C56.3101 78.2588 56.4726 77.8664 56.4726 77.4572C56.4701 75.4121 55.6565 73.4514 54.2104 72.0053C52.7643 70.5592 50.8037 69.7456 48.7586 69.7431H47.2144V62.6451H71.286C73.3311 62.6425 75.2917 61.829 76.7378 60.3829C78.1839 58.9367 78.9974 56.9761 79 54.931V7.71411C78.9974 5.66899 78.1839 3.70836 76.7378 2.26224C75.2917 0.816119 73.3311 0.0025619 71.286 0ZM7.71405 3.08634H71.2853C72.5126 3.08744 73.6894 3.5755 74.5573 4.4434C75.4252 5.3113 75.9133 6.48811 75.9144 7.7155V47.2162H68.8172V11.7264C68.8172 11.3172 68.6546 10.9248 68.3653 10.6355C68.076 10.3461 67.6835 10.1836 67.2744 10.1836H54.9298C54.7272 10.1835 54.5265 10.2233 54.3392 10.3008C54.1519 10.3783 53.9818 10.492 53.8384 10.6352C53.6951 10.7785 53.5814 10.9486 53.5038 11.1359C53.4262 11.3231 53.3863 11.5238 53.3863 11.7264V47.2148H45.6633C45.6474 45.6187 45.6052 44.0455 45.5395 42.5193C45.3953 38.383 44.9925 34.2599 44.3335 30.1739C45.86 29.0486 46.9185 27.4005 47.3071 25.5443C47.6956 23.688 47.3869 21.7537 46.4399 20.1106L41.0923 10.8482C40.9569 10.6135 40.7621 10.4186 40.5275 10.2831C40.2929 10.1476 40.0268 10.0763 39.7559 10.0763C39.485 10.0763 39.2188 10.1476 38.9842 10.2831C38.7496 10.4186 38.5549 10.6135 38.4195 10.8482L33.0684 20.1113C32.165 21.6771 31.8401 23.5104 32.1505 25.2912C32.461 27.0721 33.3869 28.6874 34.7668 29.8551C34.0589 34.045 33.6244 38.2764 33.466 42.5227C33.3969 44.0649 33.3526 45.6395 33.3346 47.2203H25.613V24.0704C25.6127 23.8397 25.5605 23.6121 25.4602 23.4044C25.4584 23.396 25.4548 23.388 25.4498 23.3809L19.2785 11.037C19.1511 10.779 18.954 10.5619 18.7096 10.4101C18.4652 10.2583 18.1832 10.1778 17.8955 10.1778C17.6078 10.1778 17.3258 10.2583 17.0814 10.4101C16.837 10.5619 16.6399 10.779 16.5124 11.037L10.3453 23.3809L10.3363 23.4044C10.236 23.6121 10.1837 23.8397 10.1835 24.0704V47.2148H3.08631V7.71411C3.08759 6.48696 3.57564 5.31044 4.44336 4.44271C5.31108 3.57498 6.4876 3.08693 7.71474 3.08565L7.71405 3.08634ZM56.4733 47.2148V13.2692H65.7309V16.3556H64.1874C63.7781 16.3556 63.3856 16.5182 63.0962 16.8076C62.8068 17.097 62.6442 17.4895 62.6442 17.8988C62.6442 18.308 62.8068 18.7005 63.0962 18.9899C63.3856 19.2793 63.7781 19.4419 64.1874 19.4419H65.7302V24.0711H64.1874C63.7781 24.0711 63.3856 24.2337 63.0962 24.5231C62.8068 24.8125 62.6442 25.205 62.6442 25.6142C62.6442 26.0235 62.8068 26.416 63.0962 26.7054C63.3856 26.9948 63.7781 27.1574 64.1874 27.1574H65.7302V31.7866H64.1874C63.7781 31.7866 63.3856 31.9492 63.0962 32.2386C62.8068 32.528 62.6442 32.9205 62.6442 33.3297C62.6442 33.739 62.8068 34.1315 63.0962 34.4209C63.3856 34.7103 63.7781 34.8729 64.1874 34.8729H65.7302V41.0456H64.1874C63.7781 41.0456 63.3856 41.2082 63.0962 41.4976C62.8068 41.787 62.6442 42.1795 62.6442 42.5888C62.6442 42.998 62.8068 43.3905 63.0962 43.6799C63.3856 43.9693 63.7781 44.1319 64.1874 44.1319H65.7302V47.2183L56.4733 47.2148ZM39.7514 31.678C40.3113 31.6767 40.8694 31.6146 41.4159 31.4927C41.7015 33.328 42.1226 36.5748 42.3716 41.0428H36.6319C36.8953 36.5789 37.3338 33.2741 37.638 31.3834C38.3267 31.5797 39.0394 31.6794 39.7555 31.6794L39.7514 31.678ZM39.7514 28.5917C38.9398 28.5903 38.1429 28.3757 37.4403 27.9695C36.7377 27.5633 36.1542 26.9797 35.748 26.2771C35.3419 25.5745 35.1274 24.7775 35.1261 23.9659C35.1248 23.1544 35.3366 22.3567 35.7405 21.6528L39.7514 14.7049L43.7623 21.6528C44.1662 22.3563 44.3783 23.1536 44.3774 23.9649C44.3765 24.7762 44.1626 25.5731 43.7571 26.2757C43.3516 26.9784 42.7687 27.5623 42.0667 27.9689C41.3647 28.3756 40.5682 28.5908 39.7569 28.5931L39.7514 28.5917ZM36.4873 44.1285H42.5085C42.5417 45.1423 42.5638 46.1734 42.5777 47.2148H36.423C36.4334 46.181 36.4576 45.1506 36.4922 44.1299L36.4873 44.1285ZM19.4369 47.2148V25.6132H22.5232V47.2148H19.4369ZM13.2657 47.2148V25.6132H16.352V47.2148H13.2657ZM14.2186 22.5269L17.8934 15.1758L21.5682 22.5269H14.2186ZM53.1222 75.9137H25.8758C26.196 75.0114 26.7876 74.2304 27.5693 73.6778C28.3511 73.1252 29.2848 72.8282 30.2421 72.8273H48.7579C49.7152 72.8278 50.6488 73.1248 51.4304 73.6775C52.212 74.2301 52.8025 75.0113 53.1222 75.9137ZM44.1322 69.7424H34.8705V62.6451H44.1281L44.1322 69.7424ZM71.2887 59.5595H7.71405C6.48666 59.5584 5.30987 59.0703 4.44198 58.2024C3.57409 57.3345 3.08603 56.1577 3.08493 54.9303V50.297H75.9137V54.9262C75.9137 56.1541 75.4262 57.3319 74.5583 58.2007C73.6905 59.0695 72.5132 59.5582 71.2853 59.5595H71.2887Z" fill="white"/>
<path d="M71.286 0H7.71405C5.66894 0.0025619 3.70833 0.816119 2.26222 2.26224C0.816112 3.70836 0.00256188 5.66899 0 7.71411V54.9303C0.00237891 56.9755 0.815848 58.9364 2.26198 60.3826C3.70811 61.8289 5.66882 62.6425 7.71405 62.6451H31.7856V69.7431H30.2428C28.1971 69.7438 26.2355 70.5568 24.789 72.0033C23.3424 73.4498 22.5295 75.4115 22.5287 77.4572C22.5287 77.8662 22.6912 78.2586 22.9804 78.5479C23.2696 78.8372 23.6618 78.9998 24.0709 79H54.9298C55.339 79 55.7314 78.8375 56.0208 78.5481C56.3101 78.2588 56.4726 77.8664 56.4726 77.4572C56.4701 75.4121 55.6565 73.4514 54.2104 72.0053C52.7643 70.5592 50.8037 69.7456 48.7586 69.7431H47.2144V62.6451H71.286C73.3311 62.6425 75.2917 61.829 76.7378 60.3829C78.1839 58.9367 78.9974 56.9761 79 54.931V7.71411C78.9974 5.66899 78.1839 3.70836 76.7378 2.26224C75.2917 0.816119 73.3311 0.0025619 71.286 0ZM7.71405 3.08634H71.2853C72.5126 3.08744 73.6894 3.5755 74.5573 4.4434C75.4252 5.3113 75.9133 6.48811 75.9144 7.7155V47.2162H68.8172V11.7264C68.8172 11.3172 68.6546 10.9248 68.3653 10.6355C68.076 10.3461 67.6835 10.1836 67.2744 10.1836H54.9298C54.7272 10.1835 54.5265 10.2233 54.3392 10.3008C54.1519 10.3783 53.9818 10.492 53.8384 10.6352C53.6951 10.7785 53.5814 10.9486 53.5038 11.1359C53.4262 11.3231 53.3863 11.5238 53.3863 11.7264V47.2148H45.6633C45.6474 45.6187 45.6052 44.0455 45.5395 42.5193C45.3953 38.383 44.9925 34.2599 44.3335 30.1739C45.86 29.0486 46.9185 27.4005 47.3071 25.5443C47.6956 23.688 47.3869 21.7537 46.4399 20.1106L41.0923 10.8482C40.9569 10.6135 40.7621 10.4186 40.5275 10.2831C40.2929 10.1476 40.0268 10.0763 39.7559 10.0763C39.485 10.0763 39.2188 10.1476 38.9842 10.2831C38.7496 10.4186 38.5549 10.6135 38.4195 10.8482L33.0684 20.1113C32.165 21.6771 31.8401 23.5104 32.1505 25.2912C32.461 27.0721 33.3869 28.6874 34.7668 29.8551C34.0589 34.045 33.6244 38.2764 33.466 42.5227C33.3969 44.0649 33.3526 45.6395 33.3346 47.2203H25.613V24.0704C25.6127 23.8397 25.5605 23.6121 25.4602 23.4044C25.4584 23.396 25.4548 23.388 25.4498 23.3809L19.2785 11.037C19.1511 10.779 18.954 10.5619 18.7096 10.4101C18.4652 10.2583 18.1832 10.1778 17.8955 10.1778C17.6078 10.1778 17.3258 10.2583 17.0814 10.4101C16.837 10.5619 16.6399 10.779 16.5124 11.037L10.3453 23.3809L10.3363 23.4044C10.236 23.6121 10.1837 23.8397 10.1835 24.0704V47.2148H3.08631V7.71411C3.08759 6.48696 3.57564 5.31044 4.44336 4.44271C5.31108 3.57498 6.4876 3.08693 7.71474 3.08565L7.71405 3.08634ZM56.4733 47.2148V13.2692H65.7309V16.3556H64.1874C63.7781 16.3556 63.3856 16.5182 63.0962 16.8076C62.8068 17.097 62.6442 17.4895 62.6442 17.8988C62.6442 18.308 62.8068 18.7005 63.0962 18.9899C63.3856 19.2793 63.7781 19.4419 64.1874 19.4419H65.7302V24.0711H64.1874C63.7781 24.0711 63.3856 24.2337 63.0962 24.5231C62.8068 24.8125 62.6442 25.205 62.6442 25.6142C62.6442 26.0235 62.8068 26.416 63.0962 26.7054C63.3856 26.9948 63.7781 27.1574 64.1874 27.1574H65.7302V31.7866H64.1874C63.7781 31.7866 63.3856 31.9492 63.0962 32.2386C62.8068 32.528 62.6442 32.9205 62.6442 33.3297C62.6442 33.739 62.8068 34.1315 63.0962 34.4209C63.3856 34.7103 63.7781 34.8729 64.1874 34.8729H65.7302V41.0456H64.1874C63.7781 41.0456 63.3856 41.2082 63.0962 41.4976C62.8068 41.787 62.6442 42.1795 62.6442 42.5888C62.6442 42.998 62.8068 43.3905 63.0962 43.6799C63.3856 43.9693 63.7781 44.1319 64.1874 44.1319H65.7302V47.2183L56.4733 47.2148ZM39.7514 31.678C40.3113 31.6767 40.8694 31.6146 41.4159 31.4927C41.7015 33.328 42.1226 36.5748 42.3716 41.0428H36.6319C36.8953 36.5789 37.3338 33.2741 37.638 31.3834C38.3267 31.5797 39.0394 31.6794 39.7555 31.6794L39.7514 31.678ZM39.7514 28.5917C38.9398 28.5903 38.1429 28.3757 37.4403 27.9695C36.7377 27.5633 36.1542 26.9797 35.748 26.2771C35.3419 25.5745 35.1274 24.7775 35.1261 23.9659C35.1248 23.1544 35.3366 22.3567 35.7405 21.6528L39.7514 14.7049L43.7623 21.6528C44.1662 22.3563 44.3783 23.1536 44.3774 23.9649C44.3765 24.7762 44.1626 25.5731 43.7571 26.2757C43.3516 26.9784 42.7687 27.5623 42.0667 27.9689C41.3647 28.3756 40.5682 28.5908 39.7569 28.5931L39.7514 28.5917ZM36.4873 44.1285H42.5085C42.5417 45.1423 42.5638 46.1734 42.5777 47.2148H36.423C36.4334 46.181 36.4576 45.1506 36.4922 44.1299L36.4873 44.1285ZM19.4369 47.2148V25.6132H22.5232V47.2148H19.4369ZM13.2657 47.2148V25.6132H16.352V47.2148H13.2657ZM14.2186 22.5269L17.8934 15.1758L21.5682 22.5269H14.2186ZM53.1222 75.9137H25.8758C26.196 75.0114 26.7876 74.2304 27.5693 73.6778C28.3511 73.1252 29.2848 72.8282 30.2421 72.8273H48.7579C49.7152 72.8278 50.6488 73.1248 51.4304 73.6775C52.212 74.2301 52.8025 75.0113 53.1222 75.9137ZM44.1322 69.7424H34.8705V62.6451H44.1281L44.1322 69.7424ZM71.2887 59.5595H7.71405C6.48666 59.5584 5.30987 59.0703 4.44198 58.2024C3.57409 57.3345 3.08603 56.1577 3.08493 54.9303V50.297H75.9137V54.9262C75.9137 56.1541 75.4262 57.3319 74.5583 58.2007C73.6905 59.0695 72.5132 59.5582 71.2853 59.5595H71.2887Z" fill="url(#paint0_linear_473_1136)"/>
<path d="M42.5818 53.3875H33.3243C32.915 53.3875 32.5225 53.5501 32.2331 53.8395C31.9437 54.1289 31.7811 54.5214 31.7811 54.9306C31.7811 55.3399 31.9437 55.7324 32.2331 56.0218C32.5225 56.3112 32.915 56.4738 33.3243 56.4738H42.5818C42.9911 56.4738 43.3836 56.3112 43.673 56.0218C43.9624 55.7324 44.125 55.3399 44.125 54.9306C44.125 54.5214 43.9624 54.1289 43.673 53.8395C43.3836 53.5501 42.9911 53.3875 42.5818 53.3875Z" fill="#4C519F"/>
<defs>
<linearGradient id="paint0_linear_473_1136" x1="66.2448" y1="6.87947" x2="-18.4964" y2="52.1912" gradientUnits="userSpaceOnUse">
<stop stop-color="#4C519F"/>
<stop offset="0.182292" stop-color="#785BB9"/>
<stop offset="0.411458" stop-color="#68338A"/>
<stop offset="0.734375" stop-color="#BD468B"/>
<stop offset="1" stop-color="#F7053F"/>
</linearGradient>
</defs>
</svg>
