<svg width="80" height="80" viewBox="0 0 80 80" fill="none" xmlns="http://www.w3.org/2000/svg">
<path d="M73.3521 0.280334H6.20139C4.63183 0.283309 3.1274 0.908166 2.01755 2.01808C0.907705 3.12798 0.282882 4.63249 0.279907 6.20214V73.3564C0.282882 74.9261 0.907705 76.4306 2.01755 77.5405C3.1274 78.6504 4.63183 79.2753 6.20139 79.2782H73.3521C74.9217 79.2753 76.4261 78.6504 77.5359 77.5405C78.6458 76.4306 79.2706 74.9261 79.2736 73.3564V6.20214C79.271 4.63238 78.6463 3.12766 77.5363 2.01767C76.4264 0.907677 74.9218 0.282938 73.3521 0.280334ZM76.6445 73.3564C76.6437 74.2295 76.2966 75.0665 75.6793 75.6838C75.062 76.3011 74.2251 76.6482 73.3521 76.649H6.20139C5.32843 76.6482 4.49143 76.3011 3.87416 75.6838C3.25688 75.0665 2.90977 74.2295 2.90902 73.3564V6.20214C2.91088 5.32986 3.25849 4.4939 3.87564 3.8775C4.4928 3.2611 5.32916 2.91455 6.20139 2.91381H73.3521C74.2241 2.91492 75.0601 3.26164 75.6769 3.878C76.2938 4.49436 76.6412 5.3301 76.6431 6.20214L76.6445 73.3564Z" fill="white"/>
<path d="M73.3521 0.280334H6.20139C4.63183 0.283309 3.1274 0.908166 2.01755 2.01808C0.907705 3.12798 0.282882 4.63249 0.279907 6.20214V73.3564C0.282882 74.9261 0.907705 76.4306 2.01755 77.5405C3.1274 78.6504 4.63183 79.2753 6.20139 79.2782H73.3521C74.9217 79.2753 76.4261 78.6504 77.5359 77.5405C78.6458 76.4306 79.2706 74.9261 79.2736 73.3564V6.20214C79.271 4.63238 78.6463 3.12766 77.5363 2.01767C76.4264 0.907677 74.9218 0.282938 73.3521 0.280334ZM76.6445 73.3564C76.6437 74.2295 76.2966 75.0665 75.6793 75.6838C75.062 76.3011 74.2251 76.6482 73.3521 76.649H6.20139C5.32843 76.6482 4.49143 76.3011 3.87416 75.6838C3.25688 75.0665 2.90977 74.2295 2.90902 73.3564V6.20214C2.91088 5.32986 3.25849 4.4939 3.87564 3.8775C4.4928 3.2611 5.32916 2.91455 6.20139 2.91381H73.3521C74.2241 2.91492 75.0601 3.26164 75.6769 3.878C76.2938 4.49436 76.6412 5.3301 76.6431 6.20214L76.6445 73.3564Z" fill="url(#paint0_linear_473_1128)"/>
<path d="M12.1243 5.54658H6.86258C6.51338 5.54658 6.17848 5.68531 5.93156 5.93224C5.68463 6.17918 5.54591 6.5141 5.54591 6.86332V12.1267C5.54591 12.476 5.68463 12.8109 5.93156 13.0578C6.17848 13.3048 6.51338 13.4435 6.86258 13.4435H12.1243C12.4735 13.4435 12.8084 13.3048 13.0553 13.0578C13.3023 12.8109 13.441 12.476 13.441 12.1267V6.86332C13.441 6.5141 13.3023 6.17918 13.0553 5.93224C12.8084 5.68531 12.4735 5.54658 12.1243 5.54658ZM10.8077 10.8128H8.17714V8.17865H10.8105L10.8077 10.8128Z" fill="white"/>
<path d="M12.1243 5.54658H6.86258C6.51338 5.54658 6.17848 5.68531 5.93156 5.93224C5.68463 6.17918 5.54591 6.5141 5.54591 6.86332V12.1267C5.54591 12.476 5.68463 12.8109 5.93156 13.0578C6.17848 13.3048 6.51338 13.4435 6.86258 13.4435H12.1243C12.4735 13.4435 12.8084 13.3048 13.0553 13.0578C13.3023 12.8109 13.441 12.476 13.441 12.1267V6.86332C13.441 6.5141 13.3023 6.17918 13.0553 5.93224C12.8084 5.68531 12.4735 5.54658 12.1243 5.54658ZM10.8077 10.8128H8.17714V8.17865H10.8105L10.8077 10.8128Z" fill="url(#paint1_linear_473_1128)"/>
<path d="M22.6612 5.54658H17.3952C17.046 5.54658 16.7111 5.68531 16.4642 5.93224C16.2172 6.17918 16.0785 6.5141 16.0785 6.86332V12.1267C16.0785 12.476 16.2172 12.8109 16.4642 13.0578C16.7111 13.3048 17.046 13.4435 17.3952 13.4435H22.6612C23.0094 13.442 23.3428 13.3026 23.5885 13.0558C23.8343 12.8091 23.9722 12.475 23.9722 12.1267V6.86332C23.9722 6.51507 23.8343 6.181 23.5885 5.93423C23.3428 5.68745 23.0094 5.54807 22.6612 5.54658ZM21.3445 10.8128H18.7112V8.17865H21.3445V10.8128Z" fill="white"/>
<path d="M22.6612 5.54658H17.3952C17.046 5.54658 16.7111 5.68531 16.4642 5.93224C16.2172 6.17918 16.0785 6.5141 16.0785 6.86332V12.1267C16.0785 12.476 16.2172 12.8109 16.4642 13.0578C16.7111 13.3048 17.046 13.4435 17.3952 13.4435H22.6612C23.0094 13.442 23.3428 13.3026 23.5885 13.0558C23.8343 12.8091 23.9722 12.475 23.9722 12.1267V6.86332C23.9722 6.51507 23.8343 6.181 23.5885 5.93423C23.3428 5.68745 23.0094 5.54807 22.6612 5.54658ZM21.3445 10.8128H18.7112V8.17865H21.3445V10.8128Z" fill="url(#paint2_linear_473_1128)"/>
<path d="M33.1945 5.54658H27.9271C27.7542 5.54658 27.583 5.58064 27.4232 5.64681C27.2635 5.71298 27.1184 5.80997 26.9961 5.93224C26.8738 6.05452 26.7768 6.19967 26.7107 6.35942C26.6445 6.51918 26.6105 6.6904 26.6105 6.86332V12.1267C26.6105 12.2997 26.6445 12.4709 26.7107 12.6306C26.7768 12.7904 26.8738 12.9356 26.9961 13.0578C27.1184 13.1801 27.2635 13.2771 27.4232 13.3433C27.583 13.4094 27.7542 13.4435 27.9271 13.4435H33.1931C33.5423 13.4435 33.8772 13.3048 34.1241 13.0578C34.371 12.8109 34.5097 12.476 34.5097 12.1267V6.86332C34.5099 6.69047 34.4761 6.51928 34.41 6.35953C34.344 6.19979 34.2472 6.05462 34.125 5.93233C34.0029 5.81004 33.8578 5.71303 33.6981 5.64684C33.5385 5.58065 33.3673 5.54658 33.1945 5.54658ZM31.8778 10.8128H29.2438V8.17865H31.8743L31.8778 10.8128Z" fill="white"/>
<path d="M33.1945 5.54658H27.9271C27.7542 5.54658 27.583 5.58064 27.4232 5.64681C27.2635 5.71298 27.1184 5.80997 26.9961 5.93224C26.8738 6.05452 26.7768 6.19967 26.7107 6.35942C26.6445 6.51918 26.6105 6.6904 26.6105 6.86332V12.1267C26.6105 12.2997 26.6445 12.4709 26.7107 12.6306C26.7768 12.7904 26.8738 12.9356 26.9961 13.0578C27.1184 13.1801 27.2635 13.2771 27.4232 13.3433C27.583 13.4094 27.7542 13.4435 27.9271 13.4435H33.1931C33.5423 13.4435 33.8772 13.3048 34.1241 13.0578C34.371 12.8109 34.5097 12.476 34.5097 12.1267V6.86332C34.5099 6.69047 34.4761 6.51928 34.41 6.35953C34.344 6.19979 34.2472 6.05462 34.125 5.93233C34.0029 5.81004 33.8578 5.71303 33.6981 5.64684C33.5385 5.58065 33.3673 5.54658 33.1945 5.54658ZM31.8778 10.8128H29.2438V8.17865H31.8743L31.8778 10.8128Z" fill="url(#paint3_linear_473_1128)"/>
<path d="M73.3521 0.280334H6.20139C4.63183 0.283309 3.1274 0.908166 2.01755 2.01808C0.907705 3.12798 0.282882 4.63249 0.279907 6.20214V17.3972C0.279907 17.7464 0.418627 18.0814 0.66555 18.3283C0.912473 18.5752 1.24737 18.714 1.59657 18.714H77.9632C78.3124 18.714 78.6473 18.5752 78.8943 18.3283C79.1412 18.0814 79.2799 17.7464 79.2799 17.3972V6.20214C79.2773 4.63128 78.6517 3.1256 77.5404 2.01543C76.4291 0.905263 74.9229 0.281264 73.3521 0.280334ZM76.6445 16.0798H2.91324V6.21058C2.91287 5.33757 3.25891 4.50008 3.87539 3.88198C4.49188 3.26388 5.32843 2.91567 6.20139 2.91381H73.3521C74.2241 2.91492 75.0601 3.26164 75.6769 3.878C76.2938 4.49436 76.6412 5.3301 76.6431 6.20214L76.6445 16.0798Z" fill="white"/>
<path d="M73.3521 0.280334H6.20139C4.63183 0.283309 3.1274 0.908166 2.01755 2.01808C0.907705 3.12798 0.282882 4.63249 0.279907 6.20214V17.3972C0.279907 17.7464 0.418627 18.0814 0.66555 18.3283C0.912473 18.5752 1.24737 18.714 1.59657 18.714H77.9632C78.3124 18.714 78.6473 18.5752 78.8943 18.3283C79.1412 18.0814 79.2799 17.7464 79.2799 17.3972V6.20214C79.2773 4.63128 78.6517 3.1256 77.5404 2.01543C76.4291 0.905263 74.9229 0.281264 73.3521 0.280334ZM76.6445 16.0798H2.91324V6.21058C2.91287 5.33757 3.25891 4.50008 3.87539 3.88198C4.49188 3.26388 5.32843 2.91567 6.20139 2.91381H73.3521C74.2241 2.91492 75.0601 3.26164 75.6769 3.878C76.2938 4.49436 76.6412 5.3301 76.6431 6.20214L76.6445 16.0798Z" fill="url(#paint4_linear_473_1128)"/>
<path d="M77.9591 16.0798H38.4619C38.1127 16.0798 37.7778 16.2185 37.5309 16.4654C37.2839 16.7124 37.1452 17.0473 37.1452 17.3965V77.9636C37.1452 78.1365 37.1793 78.3077 37.2454 78.4675C37.3116 78.6272 37.4086 78.7724 37.5309 78.8947C37.6531 79.0169 37.7983 79.1139 37.958 79.1801C38.1178 79.2463 38.289 79.2803 38.4619 79.2803H73.6039C75.1076 79.2785 76.5492 78.6803 77.6124 77.617C78.6757 76.5536 79.2739 75.112 79.2757 73.6082V17.3965C79.2757 17.0473 79.137 16.7124 78.8901 16.4654C78.6432 16.2185 78.3083 16.0798 77.9591 16.0798ZM76.6424 73.6054C76.6413 74.411 76.3208 75.1832 75.7512 75.7528C75.1816 76.3224 74.4094 76.6429 73.6039 76.644H39.7729V18.709H76.6382L76.6424 73.6054Z" fill="white"/>
<path d="M77.9591 16.0798H38.4619C38.1127 16.0798 37.7778 16.2185 37.5309 16.4654C37.2839 16.7124 37.1452 17.0473 37.1452 17.3965V77.9636C37.1452 78.1365 37.1793 78.3077 37.2454 78.4675C37.3116 78.6272 37.4086 78.7724 37.5309 78.8947C37.6531 79.0169 37.7983 79.1139 37.958 79.1801C38.1178 79.2463 38.289 79.2803 38.4619 79.2803H73.6039C75.1076 79.2785 76.5492 78.6803 77.6124 77.617C78.6757 76.5536 79.2739 75.112 79.2757 73.6082V17.3965C79.2757 17.0473 79.137 16.7124 78.8901 16.4654C78.6432 16.2185 78.3083 16.0798 77.9591 16.0798ZM76.6424 73.6054C76.6413 74.411 76.3208 75.1832 75.7512 75.7528C75.1816 76.3224 74.4094 76.6429 73.6039 76.644H39.7729V18.709H76.6382L76.6424 73.6054Z" fill="url(#paint5_linear_473_1128)"/>
<path d="M52.9445 64.7977C52.4216 64.7907 51.9026 64.8876 51.4176 65.0829C50.9325 65.2782 50.4911 65.5678 50.1189 65.9351C49.7467 66.3024 49.4512 66.7399 49.2494 67.2224C49.0477 67.7048 48.9439 68.2225 48.9439 68.7454C48.9439 69.2683 49.0477 69.786 49.2494 70.2685C49.4512 70.7509 49.7467 71.1884 50.1189 71.5557C50.4911 71.923 50.9325 72.2127 51.4176 72.4079C51.9026 72.6032 52.4216 72.7002 52.9445 72.6932H63.4778C64.5156 72.6793 65.5062 72.2573 66.2352 71.5185C66.9643 70.7796 67.373 69.7834 67.373 68.7454C67.373 67.7075 66.9643 66.7112 66.2352 65.9724C65.5062 65.2335 64.5156 64.8115 63.4778 64.7977H52.9445ZM52.9445 70.0653C52.5952 70.0653 52.2604 69.9266 52.0134 69.6797C51.7665 69.4327 51.6278 69.0978 51.6278 68.7486C51.6278 68.3994 51.7665 68.0644 52.0134 67.8175C52.2604 67.5706 52.5952 67.4318 52.9445 67.4318H63.4778C63.827 67.4318 64.1619 67.5706 64.4088 67.8175C64.6557 68.0644 64.7945 68.3994 64.7945 68.7486C64.7945 69.0978 64.6557 69.4327 64.4088 69.6797C64.1619 69.9266 63.827 70.0653 63.4778 70.0653H52.9445Z" fill="white"/>
<path d="M52.9445 64.7977C52.4216 64.7907 51.9026 64.8876 51.4176 65.0829C50.9325 65.2782 50.4911 65.5678 50.1189 65.9351C49.7467 66.3024 49.4512 66.7399 49.2494 67.2224C49.0477 67.7048 48.9439 68.2225 48.9439 68.7454C48.9439 69.2683 49.0477 69.786 49.2494 70.2685C49.4512 70.7509 49.7467 71.1884 50.1189 71.5557C50.4911 71.923 50.9325 72.2127 51.4176 72.4079C51.9026 72.6032 52.4216 72.7002 52.9445 72.6932H63.4778C64.5156 72.6793 65.5062 72.2573 66.2352 71.5185C66.9643 70.7796 67.373 69.7834 67.373 68.7454C67.373 67.7075 66.9643 66.7112 66.2352 65.9724C65.5062 65.2335 64.5156 64.8115 63.4778 64.7977H52.9445ZM52.9445 70.0653C52.5952 70.0653 52.2604 69.9266 52.0134 69.6797C51.7665 69.4327 51.6278 69.0978 51.6278 68.7486C51.6278 68.3994 51.7665 68.0644 52.0134 67.8175C52.2604 67.5706 52.5952 67.4318 52.9445 67.4318H63.4778C63.827 67.4318 64.1619 67.5706 64.4088 67.8175C64.6557 68.0644 64.7945 68.3994 64.7945 68.7486C64.7945 69.0978 64.6557 69.4327 64.4088 69.6797C64.1619 69.9266 63.827 70.0653 63.4778 70.0653H52.9445Z" fill="url(#paint6_linear_473_1128)"/>
<path d="M71.3764 22.6649H45.0444C44.6952 22.6649 44.3603 22.8036 44.1134 23.0505C43.8665 23.2974 43.7278 23.6324 43.7278 23.9816V39.7803C43.7278 39.9532 43.7618 40.1245 43.828 40.2842C43.8941 40.444 43.9911 40.5891 44.1134 40.7114C44.2357 40.8337 44.3808 40.9307 44.5406 40.9968C44.7003 41.063 44.8715 41.0971 45.0444 41.0971H71.3764C71.5493 41.0971 71.7205 41.063 71.8802 40.9968C72.04 40.9307 72.1851 40.8337 72.3074 40.7114C72.4296 40.5891 72.5266 40.444 72.5928 40.2842C72.659 40.1245 72.693 39.9532 72.693 39.7803V23.9802C72.6927 23.6312 72.5538 23.2967 72.3069 23.05C72.06 22.8034 71.7253 22.6649 71.3764 22.6649ZM70.0597 38.4643H46.3611V25.2969H70.0597V38.4643Z" fill="white"/>
<path d="M71.3764 22.6649H45.0444C44.6952 22.6649 44.3603 22.8036 44.1134 23.0505C43.8665 23.2974 43.7278 23.6324 43.7278 23.9816V39.7803C43.7278 39.9532 43.7618 40.1245 43.828 40.2842C43.8941 40.444 43.9911 40.5891 44.1134 40.7114C44.2357 40.8337 44.3808 40.9307 44.5406 40.9968C44.7003 41.063 44.8715 41.0971 45.0444 41.0971H71.3764C71.5493 41.0971 71.7205 41.063 71.8802 40.9968C72.04 40.9307 72.1851 40.8337 72.3074 40.7114C72.4296 40.5891 72.5266 40.444 72.5928 40.2842C72.659 40.1245 72.693 39.9532 72.693 39.7803V23.9802C72.6927 23.6312 72.5538 23.2967 72.3069 23.05C72.06 22.8034 71.7253 22.6649 71.3764 22.6649ZM70.0597 38.4643H46.3611V25.2969H70.0597V38.4643Z" fill="url(#paint7_linear_473_1128)"/>
<path d="M71.3764 43.7306H45.0444C44.6952 43.7306 44.3603 43.8693 44.1134 44.1162C43.8665 44.3632 43.7278 44.6981 43.7278 45.0473V50.3136C43.7276 50.4865 43.7615 50.6578 43.8276 50.8177C43.8937 50.9775 43.9907 51.1227 44.113 51.245C44.2353 51.3673 44.3805 51.4643 44.5403 51.5304C44.7002 51.5965 44.8715 51.6305 45.0444 51.6303H71.3764C71.7256 51.6303 72.0604 51.4916 72.3074 51.2446C72.5543 50.9977 72.693 50.6628 72.693 50.3136V45.0473C72.693 44.6981 72.5543 44.3632 72.3074 44.1162C72.0604 43.8693 71.7256 43.7306 71.3764 43.7306ZM70.0597 48.9968H46.3611V46.3633H70.0597V48.9968Z" fill="white"/>
<path d="M71.3764 43.7306H45.0444C44.6952 43.7306 44.3603 43.8693 44.1134 44.1162C43.8665 44.3632 43.7278 44.6981 43.7278 45.0473V50.3136C43.7276 50.4865 43.7615 50.6578 43.8276 50.8177C43.8937 50.9775 43.9907 51.1227 44.113 51.245C44.2353 51.3673 44.3805 51.4643 44.5403 51.5304C44.7002 51.5965 44.8715 51.6305 45.0444 51.6303H71.3764C71.7256 51.6303 72.0604 51.4916 72.3074 51.2446C72.5543 50.9977 72.693 50.6628 72.693 50.3136V45.0473C72.693 44.6981 72.5543 44.3632 72.3074 44.1162C72.0604 43.8693 71.7256 43.7306 71.3764 43.7306ZM70.0597 48.9968H46.3611V46.3633H70.0597V48.9968Z" fill="url(#paint8_linear_473_1128)"/>
<path d="M71.3764 54.2637H45.0444C44.8715 54.2636 44.7002 54.2975 44.5403 54.3636C44.3805 54.4297 44.2353 54.5267 44.113 54.649C43.9907 54.7713 43.8937 54.9165 43.8276 55.0764C43.7615 55.2362 43.7276 55.4075 43.7278 55.5805V60.8467C43.7278 61.196 43.8665 61.5309 44.1134 61.7778C44.3603 62.0247 44.6952 62.1635 45.0444 62.1635H71.3764C71.7256 62.1635 72.0604 62.0247 72.3074 61.7778C72.5543 61.5309 72.693 61.196 72.693 60.8467V55.5791C72.693 55.4062 72.659 55.2351 72.5928 55.0754C72.5266 54.9157 72.4296 54.7707 72.3073 54.6485C72.185 54.5263 72.0398 54.4295 71.8801 54.3635C71.7204 54.2974 71.5492 54.2636 71.3764 54.2637ZM70.0597 59.53H46.3611V56.8965H70.0597V59.53Z" fill="white"/>
<path d="M71.3764 54.2637H45.0444C44.8715 54.2636 44.7002 54.2975 44.5403 54.3636C44.3805 54.4297 44.2353 54.5267 44.113 54.649C43.9907 54.7713 43.8937 54.9165 43.8276 55.0764C43.7615 55.2362 43.7276 55.4075 43.7278 55.5805V60.8467C43.7278 61.196 43.8665 61.5309 44.1134 61.7778C44.3603 62.0247 44.6952 62.1635 45.0444 62.1635H71.3764C71.7256 62.1635 72.0604 62.0247 72.3074 61.7778C72.5543 61.5309 72.693 61.196 72.693 60.8467V55.5791C72.693 55.4062 72.659 55.2351 72.5928 55.0754C72.5266 54.9157 72.4296 54.7707 72.3073 54.6485C72.185 54.5263 72.0398 54.4295 71.8801 54.3635C71.7204 54.2974 71.5492 54.2636 71.3764 54.2637ZM70.0597 59.53H46.3611V56.8965H70.0597V59.53Z" fill="url(#paint9_linear_473_1128)"/>
<path d="M18.8142 40.4176L16.7385 39.8081C16.6869 39.793 16.6387 39.7677 16.5967 39.7337C16.5547 39.6997 16.5198 39.6577 16.4939 39.61C16.468 39.5624 16.4516 39.51 16.4458 39.4559C16.4399 39.4018 16.4446 39.3471 16.4597 39.2949L21.1035 23.103C21.1184 23.0507 21.1434 23.0019 21.1769 22.9594C21.2105 22.917 21.2521 22.8816 21.2992 22.8554C21.3463 22.8292 21.398 22.8126 21.4515 22.8067C21.5049 22.8007 21.559 22.8055 21.6106 22.8208L23.6862 23.4303C23.7378 23.4454 23.7859 23.4707 23.8279 23.5046C23.8698 23.5385 23.9047 23.5805 23.9306 23.6281C23.9565 23.6757 23.9729 23.728 23.9788 23.782C23.9847 23.836 23.9801 23.8907 23.9651 23.9429L19.3213 40.1347C19.3065 40.187 19.2815 40.2359 19.248 40.2784C19.2144 40.321 19.1729 40.3564 19.1258 40.3826C19.0786 40.4088 19.0268 40.4253 18.9734 40.4312C18.9199 40.4371 18.8658 40.4329 18.8142 40.4176ZM14.9351 36.5537L16.4151 34.9561C16.4524 34.9158 16.4813 34.8683 16.5002 34.8164C16.5191 34.7646 16.5275 34.7094 16.5249 34.6543C16.5224 34.5991 16.5089 34.545 16.4854 34.4951C16.4619 34.4453 16.4287 34.4007 16.3878 34.3641L13.3053 31.6189L16.3878 28.8743C16.4291 28.8379 16.4626 28.7935 16.4864 28.7436C16.5103 28.6937 16.5238 28.6395 16.5264 28.5842C16.5289 28.5289 16.5204 28.4736 16.5013 28.4217C16.4821 28.3698 16.4528 28.3224 16.4151 28.2823L14.9351 26.684C14.8983 26.6444 14.8541 26.6125 14.8051 26.5902C14.7561 26.5678 14.7032 26.5555 14.6495 26.5539C14.5958 26.5522 14.5423 26.5613 14.492 26.5807C14.4418 26.6 14.3958 26.6292 14.3568 26.6665L9.45343 31.3158C9.41241 31.3542 9.37968 31.4009 9.35729 31.4527C9.33491 31.5046 9.32336 31.5606 9.32336 31.6172C9.32336 31.6738 9.33491 31.7298 9.35729 31.7816C9.37968 31.8335 9.41241 31.8801 9.45343 31.9186L14.3568 36.5712C14.3957 36.6088 14.4416 36.6383 14.4918 36.6579C14.5421 36.6774 14.5957 36.6866 14.6495 36.685C14.7034 36.6834 14.7563 36.6709 14.8053 36.6484C14.8544 36.6258 14.8985 36.5936 14.9351 36.5537ZM26.0687 36.5745L30.972 31.9219C31.013 31.8835 31.0458 31.8368 31.0682 31.785C31.0905 31.7331 31.1021 31.6771 31.1021 31.6205C31.1021 31.5639 31.0905 31.508 31.0682 31.4561C31.0458 31.4042 31.013 31.3576 30.972 31.3191L26.0687 26.6632C25.9894 26.5886 25.8842 26.5486 25.776 26.5519C25.6678 26.5551 25.5652 26.6014 25.4904 26.6807L24.0097 28.2782C23.9724 28.3186 23.9434 28.3661 23.9246 28.4179C23.9057 28.4698 23.8973 28.5249 23.8998 28.5801C23.9024 28.6353 23.9158 28.6894 23.9394 28.7392C23.9629 28.7891 23.9961 28.8336 24.037 28.8703L27.1195 31.6182L24.037 34.3627C23.9957 34.3991 23.9622 34.4436 23.9383 34.4934C23.9145 34.5433 23.9009 34.5975 23.8984 34.6528C23.8958 34.7082 23.9044 34.7634 23.9235 34.8153C23.9426 34.8672 23.9719 34.9146 24.0097 34.9548L25.4897 36.5523C25.5263 36.5922 25.5703 36.6244 25.6192 36.647C25.6681 36.6696 25.7209 36.6823 25.7746 36.6842C25.8283 36.6862 25.8819 36.6773 25.9322 36.6583C25.9826 36.6392 26.0287 36.6103 26.068 36.5732L26.0687 36.5745Z" fill="white"/>
<path d="M18.8142 40.4176L16.7385 39.8081C16.6869 39.793 16.6387 39.7677 16.5967 39.7337C16.5547 39.6997 16.5198 39.6577 16.4939 39.61C16.468 39.5624 16.4516 39.51 16.4458 39.4559C16.4399 39.4018 16.4446 39.3471 16.4597 39.2949L21.1035 23.103C21.1184 23.0507 21.1434 23.0019 21.1769 22.9594C21.2105 22.917 21.2521 22.8816 21.2992 22.8554C21.3463 22.8292 21.398 22.8126 21.4515 22.8067C21.5049 22.8007 21.559 22.8055 21.6106 22.8208L23.6862 23.4303C23.7378 23.4454 23.7859 23.4707 23.8279 23.5046C23.8698 23.5385 23.9047 23.5805 23.9306 23.6281C23.9565 23.6757 23.9729 23.728 23.9788 23.782C23.9847 23.836 23.9801 23.8907 23.9651 23.9429L19.3213 40.1347C19.3065 40.187 19.2815 40.2359 19.248 40.2784C19.2144 40.321 19.1729 40.3564 19.1258 40.3826C19.0786 40.4088 19.0268 40.4253 18.9734 40.4312C18.9199 40.4371 18.8658 40.4329 18.8142 40.4176ZM14.9351 36.5537L16.4151 34.9561C16.4524 34.9158 16.4813 34.8683 16.5002 34.8164C16.5191 34.7646 16.5275 34.7094 16.5249 34.6543C16.5224 34.5991 16.5089 34.545 16.4854 34.4951C16.4619 34.4453 16.4287 34.4007 16.3878 34.3641L13.3053 31.6189L16.3878 28.8743C16.4291 28.8379 16.4626 28.7935 16.4864 28.7436C16.5103 28.6937 16.5238 28.6395 16.5264 28.5842C16.5289 28.5289 16.5204 28.4736 16.5013 28.4217C16.4821 28.3698 16.4528 28.3224 16.4151 28.2823L14.9351 26.684C14.8983 26.6444 14.8541 26.6125 14.8051 26.5902C14.7561 26.5678 14.7032 26.5555 14.6495 26.5539C14.5958 26.5522 14.5423 26.5613 14.492 26.5807C14.4418 26.6 14.3958 26.6292 14.3568 26.6665L9.45343 31.3158C9.41241 31.3542 9.37968 31.4009 9.35729 31.4527C9.33491 31.5046 9.32336 31.5606 9.32336 31.6172C9.32336 31.6738 9.33491 31.7298 9.35729 31.7816C9.37968 31.8335 9.41241 31.8801 9.45343 31.9186L14.3568 36.5712C14.3957 36.6088 14.4416 36.6383 14.4918 36.6579C14.5421 36.6774 14.5957 36.6866 14.6495 36.685C14.7034 36.6834 14.7563 36.6709 14.8053 36.6484C14.8544 36.6258 14.8985 36.5936 14.9351 36.5537ZM26.0687 36.5745L30.972 31.9219C31.013 31.8835 31.0458 31.8368 31.0682 31.785C31.0905 31.7331 31.1021 31.6771 31.1021 31.6205C31.1021 31.5639 31.0905 31.508 31.0682 31.4561C31.0458 31.4042 31.013 31.3576 30.972 31.3191L26.0687 26.6632C25.9894 26.5886 25.8842 26.5486 25.776 26.5519C25.6678 26.5551 25.5652 26.6014 25.4904 26.6807L24.0097 28.2782C23.9724 28.3186 23.9434 28.3661 23.9246 28.4179C23.9057 28.4698 23.8973 28.5249 23.8998 28.5801C23.9024 28.6353 23.9158 28.6894 23.9394 28.7392C23.9629 28.7891 23.9961 28.8336 24.037 28.8703L27.1195 31.6182L24.037 34.3627C23.9957 34.3991 23.9622 34.4436 23.9383 34.4934C23.9145 34.5433 23.9009 34.5975 23.8984 34.6528C23.8958 34.7082 23.9044 34.7634 23.9235 34.8153C23.9426 34.8672 23.9719 34.9146 24.0097 34.9548L25.4897 36.5523C25.5263 36.5922 25.5703 36.6244 25.6192 36.647C25.6681 36.6696 25.7209 36.6823 25.7746 36.6842C25.8283 36.6862 25.8819 36.6773 25.9322 36.6583C25.9826 36.6392 26.0287 36.6103 26.068 36.5732L26.0687 36.5745Z" fill="url(#paint10_linear_473_1128)"/>
<defs>
<linearGradient id="paint0_linear_473_1128" x1="66.5247" y1="7.15981" x2="-18.2165" y2="52.4715" gradientUnits="userSpaceOnUse">
<stop stop-color="#4C519F"/>
<stop offset="0.182292" stop-color="#785BB9"/>
<stop offset="0.411458" stop-color="#68338A"/>
<stop offset="0.734375" stop-color="#BD468B"/>
<stop offset="1" stop-color="#F7053F"/>
</linearGradient>
<linearGradient id="paint1_linear_473_1128" x1="66.5247" y1="7.15981" x2="-18.2165" y2="52.4715" gradientUnits="userSpaceOnUse">
<stop stop-color="#4C519F"/>
<stop offset="0.182292" stop-color="#785BB9"/>
<stop offset="0.411458" stop-color="#68338A"/>
<stop offset="0.734375" stop-color="#BD468B"/>
<stop offset="1" stop-color="#F7053F"/>
</linearGradient>
<linearGradient id="paint2_linear_473_1128" x1="66.5247" y1="7.15981" x2="-18.2165" y2="52.4715" gradientUnits="userSpaceOnUse">
<stop stop-color="#4C519F"/>
<stop offset="0.182292" stop-color="#785BB9"/>
<stop offset="0.411458" stop-color="#68338A"/>
<stop offset="0.734375" stop-color="#BD468B"/>
<stop offset="1" stop-color="#F7053F"/>
</linearGradient>
<linearGradient id="paint3_linear_473_1128" x1="66.5247" y1="7.15981" x2="-18.2165" y2="52.4715" gradientUnits="userSpaceOnUse">
<stop stop-color="#4C519F"/>
<stop offset="0.182292" stop-color="#785BB9"/>
<stop offset="0.411458" stop-color="#68338A"/>
<stop offset="0.734375" stop-color="#BD468B"/>
<stop offset="1" stop-color="#F7053F"/>
</linearGradient>
<linearGradient id="paint4_linear_473_1128" x1="66.5247" y1="7.15981" x2="-18.2165" y2="52.4715" gradientUnits="userSpaceOnUse">
<stop stop-color="#4C519F"/>
<stop offset="0.182292" stop-color="#785BB9"/>
<stop offset="0.411458" stop-color="#68338A"/>
<stop offset="0.734375" stop-color="#BD468B"/>
<stop offset="1" stop-color="#F7053F"/>
</linearGradient>
<linearGradient id="paint5_linear_473_1128" x1="66.5247" y1="7.15981" x2="-18.2165" y2="52.4715" gradientUnits="userSpaceOnUse">
<stop stop-color="#4C519F"/>
<stop offset="0.182292" stop-color="#785BB9"/>
<stop offset="0.411458" stop-color="#68338A"/>
<stop offset="0.734375" stop-color="#BD468B"/>
<stop offset="1" stop-color="#F7053F"/>
</linearGradient>
<linearGradient id="paint6_linear_473_1128" x1="66.5247" y1="7.15981" x2="-18.2165" y2="52.4715" gradientUnits="userSpaceOnUse">
<stop stop-color="#4C519F"/>
<stop offset="0.182292" stop-color="#785BB9"/>
<stop offset="0.411458" stop-color="#68338A"/>
<stop offset="0.734375" stop-color="#BD468B"/>
<stop offset="1" stop-color="#F7053F"/>
</linearGradient>
<linearGradient id="paint7_linear_473_1128" x1="66.5247" y1="7.15981" x2="-18.2165" y2="52.4715" gradientUnits="userSpaceOnUse">
<stop stop-color="#4C519F"/>
<stop offset="0.182292" stop-color="#785BB9"/>
<stop offset="0.411458" stop-color="#68338A"/>
<stop offset="0.734375" stop-color="#BD468B"/>
<stop offset="1" stop-color="#F7053F"/>
</linearGradient>
<linearGradient id="paint8_linear_473_1128" x1="66.5247" y1="7.15981" x2="-18.2165" y2="52.4715" gradientUnits="userSpaceOnUse">
<stop stop-color="#4C519F"/>
<stop offset="0.182292" stop-color="#785BB9"/>
<stop offset="0.411458" stop-color="#68338A"/>
<stop offset="0.734375" stop-color="#BD468B"/>
<stop offset="1" stop-color="#F7053F"/>
</linearGradient>
<linearGradient id="paint9_linear_473_1128" x1="66.5247" y1="7.15981" x2="-18.2165" y2="52.4715" gradientUnits="userSpaceOnUse">
<stop stop-color="#4C519F"/>
<stop offset="0.182292" stop-color="#785BB9"/>
<stop offset="0.411458" stop-color="#68338A"/>
<stop offset="0.734375" stop-color="#BD468B"/>
<stop offset="1" stop-color="#F7053F"/>
</linearGradient>
<linearGradient id="paint10_linear_473_1128" x1="66.5247" y1="7.15981" x2="-18.2165" y2="52.4715" gradientUnits="userSpaceOnUse">
<stop stop-color="#4C519F"/>
<stop offset="0.182292" stop-color="#785BB9"/>
<stop offset="0.411458" stop-color="#68338A"/>
<stop offset="0.734375" stop-color="#BD468B"/>
<stop offset="1" stop-color="#F7053F"/>
</linearGradient>
</defs>
</svg>

