<svg width="449" height="449" viewBox="0 0 449 449" fill="none" xmlns="http://www.w3.org/2000/svg">
<path d="M420.37 28.63C412.777 21.0371 402.478 16.7715 391.74 16.7715C381.002 16.7715 370.703 21.0371 363.11 28.63L152 263.74C175.08 268.44 198.12 291.03 201.26 313L420.37 85.89C427.963 78.2967 432.228 67.9982 432.228 57.26C432.228 46.5217 427.963 36.2233 420.37 28.63ZM106 305C76.12 305 52 329.5 52 359.86C52 383.81 31.12 396.43 16 396.43C32.56 418.74 60.82 433 88 433C127.78 433 160 400.27 160 359.86C160 329.5 135.88 305 106 305Z" stroke="#f7f7f7" stroke-width="32" stroke-linecap="round" stroke-linejoin="round"/>
</svg>
