<svg width="288" height="512" viewBox="0 0 288 512" fill="none" xmlns="http://www.w3.org/2000/svg">
<path d="M64 16H224M64 16C37.4903 16 16 37.4903 16 64V448C16 474.51 37.4903 496 64 496H224C250.51 496 272 474.51 272 448V64C272 37.4903 250.51 16 224 16M64 16H88C90.1217 16 92.1566 16.8429 93.6569 18.3431C95.1572 19.8434 96 21.8783 96 24C96 28.2435 97.6857 32.3131 100.686 35.3137C103.687 38.3143 107.757 40 112 40H176C180.243 40 184.313 38.3143 187.314 35.3137C190.314 32.3131 192 28.2435 192 24C192 21.8783 192.843 19.8434 194.343 18.3431C195.843 16.8429 197.878 16 200 16H224" stroke="#4C519F" stroke-width="32" stroke-linecap="round" stroke-linejoin="round"/>
</svg>
