<svg width="79" height="79" viewBox="0 0 79 79" fill="none" xmlns="http://www.w3.org/2000/svg">
<path d="M73.078 0H5.92196C4.35227 0.00297466 2.84773 0.627849 1.73779 1.73779C0.627849 2.84773 0.00297466 4.35227 0 5.92196V73.078C0.00297466 74.6477 0.627849 76.1523 1.73779 77.2622C2.84773 78.3722 4.35227 78.997 5.92196 79H73.078C74.6477 78.997 76.1523 78.3722 77.2622 77.2622C78.3722 76.1523 78.997 74.6477 79 73.078V5.92196C78.9974 4.35216 78.3726 2.8474 77.2626 1.73738C76.1526 0.627359 74.6478 0.00260394 73.078 0ZM76.3707 73.078C76.3699 73.9511 76.0228 74.7881 75.4055 75.4055C74.7881 76.0228 73.9511 76.3699 73.078 76.3707H5.92196C5.04893 76.3699 4.21186 76.0228 3.59454 75.4055C2.97721 74.7881 2.63007 73.9511 2.62932 73.078V5.92196C2.63119 5.04966 2.97882 4.21368 3.59603 3.59726C4.21323 2.98085 5.04966 2.63429 5.92196 2.63354H73.078C73.9501 2.63466 74.7862 2.98138 75.4031 3.59776C76.02 4.21413 76.3674 5.0499 76.3693 5.92196L76.3707 73.078Z" fill="white"/>
<path d="M73.078 0H5.92196C4.35227 0.00297466 2.84773 0.627849 1.73779 1.73779C0.627849 2.84773 0.00297466 4.35227 0 5.92196V73.078C0.00297466 74.6477 0.627849 76.1523 1.73779 77.2622C2.84773 78.3722 4.35227 78.997 5.92196 79H73.078C74.6477 78.997 76.1523 78.3722 77.2622 77.2622C78.3722 76.1523 78.997 74.6477 79 73.078V5.92196C78.9974 4.35216 78.3726 2.8474 77.2626 1.73738C76.1526 0.627359 74.6478 0.00260394 73.078 0ZM76.3707 73.078C76.3699 73.9511 76.0228 74.7881 75.4055 75.4055C74.7881 76.0228 73.9511 76.3699 73.078 76.3707H5.92196C5.04893 76.3699 4.21186 76.0228 3.59454 75.4055C2.97721 74.7881 2.63007 73.9511 2.62932 73.078V5.92196C2.63119 5.04966 2.97882 4.21368 3.59603 3.59726C4.21323 2.98085 5.04966 2.63429 5.92196 2.63354H73.078C73.9501 2.63466 74.7862 2.98138 75.4031 3.59776C76.02 4.21413 76.3674 5.0499 76.3693 5.92196L76.3707 73.078Z" fill="url(#paint0_linear_70_1028)"/>
<path d="M16.0376 7.69243H48.4491C48.8222 7.69243 49.18 7.84064 49.4438 8.10447C49.7076 8.3683 49.8559 8.72612 49.8559 9.09923V68.2555C49.8559 68.6286 49.7076 68.9864 49.4438 69.2503C49.18 69.5141 48.8222 69.6623 48.4491 69.6623H16.0376C15.6645 69.6623 15.3067 69.5141 15.0428 69.2503C14.779 68.9864 14.6308 68.6286 14.6308 68.2555V9.09923C14.6308 8.72612 14.779 8.3683 15.0428 8.10447C15.3067 7.84064 15.6645 7.69243 16.0376 7.69243ZM47.0422 10.506H17.4444V66.8487H47.0422V10.506Z" fill="white"/>
<path d="M16.0376 7.69243H48.4491C48.8222 7.69243 49.18 7.84064 49.4438 8.10447C49.7076 8.3683 49.8559 8.72612 49.8559 9.09923V68.2555C49.8559 68.6286 49.7076 68.9864 49.4438 69.2503C49.18 69.5141 48.8222 69.6623 48.4491 69.6623H16.0376C15.6645 69.6623 15.3067 69.5141 15.0428 69.2503C14.779 68.9864 14.6308 68.6286 14.6308 68.2555V9.09923C14.6308 8.72612 14.779 8.3683 15.0428 8.10447C15.3067 7.84064 15.6645 7.69243 16.0376 7.69243ZM47.0422 10.506H17.4444V66.8487H47.0422V10.506Z" fill="url(#paint1_linear_70_1028)"/>
<path d="M31.1249 43.1355L29.2961 42.6052C29.2506 42.592 29.2082 42.57 29.1712 42.5404C29.1343 42.5108 29.1035 42.4742 29.0807 42.4327C29.0579 42.3913 29.0435 42.3457 29.0384 42.2986C29.0332 42.2516 29.0373 42.204 29.0506 42.1585L33.1423 28.0672C33.1555 28.0218 33.1775 27.9793 33.2071 27.9424C33.2367 27.9054 33.2732 27.8747 33.3147 27.8519C33.3562 27.8291 33.4018 27.8147 33.4488 27.8095C33.4959 27.8043 33.5435 27.8085 33.5889 27.8217L35.4178 28.3521C35.4633 28.3653 35.5057 28.3873 35.5426 28.4169C35.5796 28.4465 35.6103 28.4831 35.6331 28.5245C35.6559 28.566 35.6703 28.6116 35.6755 28.6587C35.6807 28.7057 35.6765 28.7533 35.6633 28.7988L31.5716 42.8901C31.5585 42.9356 31.5365 42.9781 31.507 43.0151C31.4774 43.0521 31.4408 43.0828 31.3993 43.1057C31.3578 43.1285 31.3122 43.1429 31.2651 43.148C31.218 43.1531 31.1704 43.1489 31.1249 43.1355ZM27.7085 39.7733L29.0119 38.3826C29.0449 38.3476 29.0705 38.3062 29.0872 38.2611C29.1038 38.2159 29.1113 38.1679 29.1091 38.1198C29.1068 38.0717 29.095 38.0245 29.0742 37.9811C29.0534 37.9377 29.0241 37.8989 28.988 37.867L26.2728 35.4755L28.988 33.0839C29.0243 33.0522 29.0539 33.0135 29.0748 32.97C29.0958 32.9266 29.1078 32.8794 29.11 32.8312C29.1122 32.783 29.1047 32.7349 29.0878 32.6897C29.071 32.6445 29.0451 32.6032 29.0119 32.5683L27.7085 31.1819C27.6759 31.1475 27.6369 31.1198 27.5936 31.1005C27.5503 31.0812 27.5037 31.0706 27.4563 31.0694C27.4089 31.0681 27.3617 31.0762 27.3175 31.0933C27.2733 31.1103 27.2328 31.1359 27.1985 31.1685L22.8803 35.2145C22.8441 35.248 22.8153 35.2885 22.7955 35.3337C22.7758 35.3789 22.7656 35.4276 22.7656 35.4769C22.7656 35.5262 22.7758 35.5749 22.7955 35.6201C22.8153 35.6652 22.8441 35.7058 22.8803 35.7393L27.1985 39.788C27.2327 39.8209 27.2732 39.8466 27.3174 39.8636C27.3616 39.8807 27.4088 39.8887 27.4562 39.8874C27.5036 39.886 27.5503 39.8752 27.5935 39.8556C27.6367 39.836 27.6762 39.808 27.7085 39.7733ZM37.5146 39.7916L41.8335 35.7428C41.8697 35.7093 41.8986 35.6687 41.9183 35.6236C41.9381 35.5784 41.9483 35.5297 41.9483 35.4804C41.9483 35.4311 41.9381 35.3824 41.9183 35.3372C41.8986 35.2921 41.8697 35.2515 41.8335 35.218L37.5146 31.1664C37.4448 31.1015 37.3523 31.0667 37.257 31.0694C37.1617 31.0722 37.0713 31.1123 37.0054 31.1812L35.7013 32.5711C35.6683 32.6062 35.6427 32.6475 35.626 32.6927C35.6093 32.7378 35.6019 32.7859 35.6041 32.834C35.6063 32.8821 35.6182 32.9292 35.639 32.9726C35.6598 33.016 35.6891 33.0548 35.7252 33.0867L38.4403 35.4783L35.7252 37.8699C35.6888 37.9016 35.6593 37.9403 35.6383 37.9837C35.6174 38.0272 35.6054 38.0744 35.6032 38.1226C35.6009 38.1707 35.6085 38.2189 35.6253 38.264C35.6422 38.3092 35.668 38.3505 35.7013 38.3855L37.0047 39.7761C37.0369 39.8107 37.0756 39.8387 37.1187 39.8584C37.1617 39.8781 37.2082 39.8891 37.2555 39.8908C37.3028 39.8925 37.35 39.8848 37.3943 39.8683C37.4387 39.8518 37.4793 39.8266 37.5139 39.7944L37.5146 39.7916Z" fill="white"/>
<path d="M31.1249 43.1355L29.2961 42.6052C29.2506 42.592 29.2082 42.57 29.1712 42.5404C29.1343 42.5108 29.1035 42.4742 29.0807 42.4327C29.0579 42.3913 29.0435 42.3457 29.0384 42.2986C29.0332 42.2516 29.0373 42.204 29.0506 42.1585L33.1423 28.0672C33.1555 28.0218 33.1775 27.9793 33.2071 27.9424C33.2367 27.9054 33.2732 27.8747 33.3147 27.8519C33.3562 27.8291 33.4018 27.8147 33.4488 27.8095C33.4959 27.8043 33.5435 27.8085 33.5889 27.8217L35.4178 28.3521C35.4633 28.3653 35.5057 28.3873 35.5426 28.4169C35.5796 28.4465 35.6103 28.4831 35.6331 28.5245C35.6559 28.566 35.6703 28.6116 35.6755 28.6587C35.6807 28.7057 35.6765 28.7533 35.6633 28.7988L31.5716 42.8901C31.5585 42.9356 31.5365 42.9781 31.507 43.0151C31.4774 43.0521 31.4408 43.0828 31.3993 43.1057C31.3578 43.1285 31.3122 43.1429 31.2651 43.148C31.218 43.1531 31.1704 43.1489 31.1249 43.1355ZM27.7085 39.7733L29.0119 38.3826C29.0449 38.3476 29.0705 38.3062 29.0872 38.2611C29.1038 38.2159 29.1113 38.1679 29.1091 38.1198C29.1068 38.0717 29.095 38.0245 29.0742 37.9811C29.0534 37.9377 29.0241 37.8989 28.988 37.867L26.2728 35.4755L28.988 33.0839C29.0243 33.0522 29.0539 33.0135 29.0748 32.97C29.0958 32.9266 29.1078 32.8794 29.11 32.8312C29.1122 32.783 29.1047 32.7349 29.0878 32.6897C29.071 32.6445 29.0451 32.6032 29.0119 32.5683L27.7085 31.1819C27.6759 31.1475 27.6369 31.1198 27.5936 31.1005C27.5503 31.0812 27.5037 31.0706 27.4563 31.0694C27.4089 31.0681 27.3617 31.0762 27.3175 31.0933C27.2733 31.1103 27.2328 31.1359 27.1985 31.1685L22.8803 35.2145C22.8441 35.248 22.8153 35.2885 22.7955 35.3337C22.7758 35.3789 22.7656 35.4276 22.7656 35.4769C22.7656 35.5262 22.7758 35.5749 22.7955 35.6201C22.8153 35.6652 22.8441 35.7058 22.8803 35.7393L27.1985 39.788C27.2327 39.8209 27.2732 39.8466 27.3174 39.8636C27.3616 39.8807 27.4088 39.8887 27.4562 39.8874C27.5036 39.886 27.5503 39.8752 27.5935 39.8556C27.6367 39.836 27.6762 39.808 27.7085 39.7733ZM37.5146 39.7916L41.8335 35.7428C41.8697 35.7093 41.8986 35.6687 41.9183 35.6236C41.9381 35.5784 41.9483 35.5297 41.9483 35.4804C41.9483 35.4311 41.9381 35.3824 41.9183 35.3372C41.8986 35.2921 41.8697 35.2515 41.8335 35.218L37.5146 31.1664C37.4448 31.1015 37.3523 31.0667 37.257 31.0694C37.1617 31.0722 37.0713 31.1123 37.0054 31.1812L35.7013 32.5711C35.6683 32.6062 35.6427 32.6475 35.626 32.6927C35.6093 32.7378 35.6019 32.7859 35.6041 32.834C35.6063 32.8821 35.6182 32.9292 35.639 32.9726C35.6598 33.016 35.6891 33.0548 35.7252 33.0867L38.4403 35.4783L35.7252 37.8699C35.6888 37.9016 35.6593 37.9403 35.6383 37.9837C35.6174 38.0272 35.6054 38.0744 35.6032 38.1226C35.6009 38.1707 35.6085 38.2189 35.6253 38.264C35.6422 38.3092 35.668 38.3505 35.7013 38.3855L37.0047 39.7761C37.0369 39.8107 37.0756 39.8387 37.1187 39.8584C37.1617 39.8781 37.2082 39.8891 37.2555 39.8908C37.3028 39.8925 37.35 39.8848 37.3943 39.8683C37.4387 39.8518 37.4793 39.8266 37.5139 39.7944L37.5146 39.7916Z" fill="url(#paint2_linear_70_1028)"/>
<path d="M47.4798 21.5024H54.1347V26.8391L55.2517 27.4131L58.8791 23.4775L66.1291 30.3962L62.2604 34.1946L62.7021 35.3904H68.3476V45.2415H62.949L62.3265 46.4873L66.2733 50.2603L59.2266 57.3788L55.3635 53.5157L54.4041 53.9377V59.6845H47.4798V45.9548L47.3862 45.8647C47.2413 45.7264 47.1385 45.5499 47.0896 45.3556C47.0407 45.1613 47.0477 44.9572 47.1098 44.7667C47.1732 44.5728 47.2895 44.4005 47.4456 44.2691C47.6017 44.1377 47.7913 44.0526 47.9932 44.0232C48.0748 44.0071 48.1621 43.9944 48.2746 43.9782C49.2899 43.8721 50.2614 43.509 51.0974 42.9231L51.1037 42.9182C51.401 42.67 51.6697 42.3895 51.9049 42.0818C52.0926 41.6226 52.2235 41.1421 52.2946 40.6511C52.3369 40.2027 52.2878 39.7504 52.1502 39.3215C52.0126 38.8927 51.7894 38.4962 51.4941 38.1561C50.7261 37.4959 49.74 37.1449 48.7276 37.1714C48.6573 37.1714 48.6151 37.1714 48.6038 37.1714L47.4706 37.2579L47.4805 36.1184L47.4798 21.5024ZM52.0245 23.6126H49.59V35.1125C50.8715 35.2364 52.0738 35.7891 53.0022 36.6811C53.4986 37.219 53.8792 37.8533 54.1202 38.5444C54.3613 39.2356 54.4576 39.969 54.4034 40.699C54.3181 41.4903 54.1186 42.265 53.8111 42.9991L53.7605 43.1257L53.6789 43.2354C52.7033 44.6066 51.2405 45.553 49.59 45.8809V57.5729H52.2939V52.5583L55.8362 51.0031L59.2196 54.3872L63.2634 50.3039L59.7464 46.9395L61.6456 43.1341H66.2388V37.5034H61.2334L59.8097 33.6487L63.096 30.4187L58.9762 26.4867L55.7166 30.0234L52.0252 28.1277L52.0245 23.6126Z" fill="white"/>
<path d="M47.4798 21.5024H54.1347V26.8391L55.2517 27.4131L58.8791 23.4775L66.1291 30.3962L62.2604 34.1946L62.7021 35.3904H68.3476V45.2415H62.949L62.3265 46.4873L66.2733 50.2603L59.2266 57.3788L55.3635 53.5157L54.4041 53.9377V59.6845H47.4798V45.9548L47.3862 45.8647C47.2413 45.7264 47.1385 45.5499 47.0896 45.3556C47.0407 45.1613 47.0477 44.9572 47.1098 44.7667C47.1732 44.5728 47.2895 44.4005 47.4456 44.2691C47.6017 44.1377 47.7913 44.0526 47.9932 44.0232C48.0748 44.0071 48.1621 43.9944 48.2746 43.9782C49.2899 43.8721 50.2614 43.509 51.0974 42.9231L51.1037 42.9182C51.401 42.67 51.6697 42.3895 51.9049 42.0818C52.0926 41.6226 52.2235 41.1421 52.2946 40.6511C52.3369 40.2027 52.2878 39.7504 52.1502 39.3215C52.0126 38.8927 51.7894 38.4962 51.4941 38.1561C50.7261 37.4959 49.74 37.1449 48.7276 37.1714C48.6573 37.1714 48.6151 37.1714 48.6038 37.1714L47.4706 37.2579L47.4805 36.1184L47.4798 21.5024ZM52.0245 23.6126H49.59V35.1125C50.8715 35.2364 52.0738 35.7891 53.0022 36.6811C53.4986 37.219 53.8792 37.8533 54.1202 38.5444C54.3613 39.2356 54.4576 39.969 54.4034 40.699C54.3181 41.4903 54.1186 42.265 53.8111 42.9991L53.7605 43.1257L53.6789 43.2354C52.7033 44.6066 51.2405 45.553 49.59 45.8809V57.5729H52.2939V52.5583L55.8362 51.0031L59.2196 54.3872L63.2634 50.3039L59.7464 46.9395L61.6456 43.1341H66.2388V37.5034H61.2334L59.8097 33.6487L63.096 30.4187L58.9762 26.4867L55.7166 30.0234L52.0252 28.1277L52.0245 23.6126Z" fill="url(#paint3_linear_70_1028)"/>
<path d="M48.8648 51.2873C48.7034 51.2889 48.5422 51.279 48.3822 51.2578L48.6882 49.17C49.5574 49.1733 50.4214 49.0356 51.2465 48.7621C52.7126 48.3445 54.0671 47.6048 55.2109 46.597C57.0067 44.9482 57.8318 42.6882 57.6629 39.8795C57.4611 36.5243 55.9044 34.1559 53.0451 32.8419C51.6255 32.2109 50.0962 31.8637 48.5433 31.8199L48.5201 29.7097C50.3574 29.7471 52.1689 30.1487 53.8498 30.8914C56.3743 32.0302 59.4496 34.4921 59.7661 39.7543C59.8969 41.4515 59.6425 43.1563 59.0219 44.7414C58.4891 46.0416 57.6736 47.207 56.6346 48.1529C55.2545 49.3774 53.6177 50.2773 51.8444 50.7865C50.8786 51.0881 49.8761 51.2566 48.8648 51.2873Z" fill="white"/>
<path d="M48.8648 51.2873C48.7034 51.2889 48.5422 51.279 48.3822 51.2578L48.6882 49.17C49.5574 49.1733 50.4214 49.0356 51.2465 48.7621C52.7126 48.3445 54.0671 47.6048 55.2109 46.597C57.0067 44.9482 57.8318 42.6882 57.6629 39.8795C57.4611 36.5243 55.9044 34.1559 53.0451 32.8419C51.6255 32.2109 50.0962 31.8637 48.5433 31.8199L48.5201 29.7097C50.3574 29.7471 52.1689 30.1487 53.8498 30.8914C56.3743 32.0302 59.4496 34.4921 59.7661 39.7543C59.8969 41.4515 59.6425 43.1563 59.0219 44.7414C58.4891 46.0416 57.6736 47.207 56.6346 48.1529C55.2545 49.3774 53.6177 50.2773 51.8444 50.7865C50.8786 51.0881 49.8761 51.2566 48.8648 51.2873Z" fill="url(#paint4_linear_70_1028)"/>
<circle cx="32.5" cy="59.5" r="3.5" stroke="#4C519F" stroke-width="2"/>
<defs>
<linearGradient id="paint0_linear_70_1028" x1="66.2448" y1="6.87947" x2="-18.4964" y2="52.1912" gradientUnits="userSpaceOnUse">
<stop stop-color="#4C519F"/>
<stop offset="0.182292" stop-color="#785BB9"/>
<stop offset="0.411458" stop-color="#68338A"/>
<stop offset="0.734375" stop-color="#BD468B"/>
<stop offset="1" stop-color="#F7053F"/>
</linearGradient>
<linearGradient id="paint1_linear_70_1028" x1="66.2448" y1="6.87947" x2="-18.4964" y2="52.1912" gradientUnits="userSpaceOnUse">
<stop stop-color="#4C519F"/>
<stop offset="0.182292" stop-color="#785BB9"/>
<stop offset="0.411458" stop-color="#68338A"/>
<stop offset="0.734375" stop-color="#BD468B"/>
<stop offset="1" stop-color="#F7053F"/>
</linearGradient>
<linearGradient id="paint2_linear_70_1028" x1="66.2448" y1="6.87947" x2="-18.4964" y2="52.1912" gradientUnits="userSpaceOnUse">
<stop stop-color="#4C519F"/>
<stop offset="0.182292" stop-color="#785BB9"/>
<stop offset="0.411458" stop-color="#68338A"/>
<stop offset="0.734375" stop-color="#BD468B"/>
<stop offset="1" stop-color="#F7053F"/>
</linearGradient>
<linearGradient id="paint3_linear_70_1028" x1="66.2448" y1="6.87947" x2="-18.4964" y2="52.1912" gradientUnits="userSpaceOnUse">
<stop stop-color="#4C519F"/>
<stop offset="0.182292" stop-color="#785BB9"/>
<stop offset="0.411458" stop-color="#68338A"/>
<stop offset="0.734375" stop-color="#BD468B"/>
<stop offset="1" stop-color="#F7053F"/>
</linearGradient>
<linearGradient id="paint4_linear_70_1028" x1="66.2448" y1="6.87947" x2="-18.4964" y2="52.1912" gradientUnits="userSpaceOnUse">
<stop stop-color="#4C519F"/>
<stop offset="0.182292" stop-color="#785BB9"/>
<stop offset="0.411458" stop-color="#68338A"/>
<stop offset="0.734375" stop-color="#BD468B"/>
<stop offset="1" stop-color="#F7053F"/>
</linearGradient>
</defs>
</svg>
