<svg width="79" height="79" viewBox="0 0 79 79" fill="none" xmlns="http://www.w3.org/2000/svg">
<path d="M74.715 0H4.28536C3.14967 0.00278556 2.06129 0.455162 1.25823 1.2582C0.455172 2.06124 0.00278562 3.1496 0 4.28527L0 55.859C0.00278562 56.9947 0.455172 58.083 1.25823 58.8861C2.06129 59.6891 3.14967 60.1415 4.28536 60.1443H11.8236C11.6476 60.3693 11.5602 60.6509 11.5778 60.936C11.5954 61.2212 11.7169 61.4899 11.9193 61.6915L17.5339 67.3061C17.1136 68.1689 16.7456 69.0562 16.4318 69.9632H8.49125C8.18142 69.9632 7.88428 70.0862 7.66519 70.3053C7.44611 70.5244 7.32303 70.8215 7.32303 71.1314V77.8318C7.32303 78.1416 7.44611 78.4388 7.66519 78.6578C7.88428 78.8769 8.18142 79 8.49125 79H31.5498C31.8596 79 32.1568 78.8769 32.3758 78.6578C32.5949 78.4388 32.718 78.1416 32.718 77.8318C32.718 76.1169 33.3993 74.4721 34.612 73.2595C35.8246 72.0468 37.4694 71.3656 39.1844 71.3656C40.8994 71.3656 42.5441 72.0468 43.7568 73.2595C44.9695 74.4721 45.6508 76.1169 45.6508 77.8318C45.6508 77.9852 45.681 78.1371 45.7397 78.2789C45.7984 78.4206 45.8844 78.5494 45.9929 78.6578C46.1014 78.7663 46.2302 78.8524 46.3719 78.9111C46.5137 78.9698 46.6656 79 46.819 79H69.8881C70.1979 79 70.495 78.8769 70.7141 78.6578C70.9332 78.4388 71.0563 78.1416 71.0563 77.8318V71.1328C71.0563 70.8229 70.9332 70.5258 70.7141 70.3067C70.495 70.0877 70.1979 69.9646 69.8881 69.9646H61.9447C61.6309 69.0574 61.2629 68.1698 60.8426 67.3068L66.4558 61.6908C66.6577 61.4889 66.7787 61.2201 66.7961 60.9351C66.8135 60.65 66.726 60.3685 66.5501 60.1436H74.7129C75.8486 60.1408 76.937 59.6884 77.74 58.8854C78.5431 58.0823 78.9955 56.994 78.9982 55.8583V26.9494C78.9908 26.6445 78.8644 26.3545 78.646 26.1415C78.4277 25.9285 78.1347 25.8092 77.8297 25.8092C77.5246 25.8092 77.2316 25.9285 77.0133 26.1415C76.795 26.3545 76.6686 26.6445 76.6611 26.9494V55.859C76.6607 56.3756 76.4553 56.8709 76.0901 57.2361C75.7248 57.6014 75.2295 57.8068 74.7129 57.8072H64.227L57.34 50.9196V42.9265C57.3397 42.6168 57.2165 42.3199 56.9975 42.1009C56.7784 41.8819 56.4815 41.7587 56.1718 41.7583H54.0682V34.5564L55.7154 33.0338C55.8783 32.8837 55.9952 32.6905 56.0525 32.4766C56.1097 32.2626 56.105 32.0368 56.0389 31.8255L53.2347 22.7872C53.1602 22.5492 53.0114 22.3412 52.8102 22.1936C52.609 22.0461 52.3659 21.9667 52.1164 21.9672H49.0007C48.752 21.9678 48.5101 22.0476 48.3098 22.1951C48.1096 22.3425 47.9616 22.55 47.8873 22.7872L45.0832 31.8255C45.017 32.0368 45.0123 32.2626 45.0696 32.4766C45.1269 32.6905 45.2438 32.8837 45.4067 33.0338L47.0567 34.5564V41.752H44.9538C44.6439 41.752 44.3468 41.8751 44.1277 42.0942C43.9086 42.3132 43.7855 42.6104 43.7855 42.9202V45.9585H34.5903V44.1904L39.0782 39.7026C39.2973 39.4836 39.4205 39.1866 39.4207 38.8769V29.2922C39.4202 29.1372 39.3888 28.9839 39.3284 28.8412C39.268 28.6984 39.1799 28.5692 39.069 28.4608L32.8369 22.3055C32.6726 22.1437 32.4641 22.034 32.2377 21.9903C32.0113 21.9466 31.777 21.9708 31.5643 22.0599C31.3516 22.149 31.17 22.2989 31.0423 22.4909C30.9146 22.6829 30.8464 22.9083 30.8465 23.1389V33.5549L27.8137 35.4693L24.7754 33.5563V32.8854C24.7792 32.7295 24.7518 32.5744 24.6948 32.4293C24.6378 32.2842 24.5523 32.152 24.4434 32.0404C24.3345 31.9288 24.2044 31.8401 24.0607 31.7795C23.917 31.719 23.7627 31.6878 23.6068 31.6878C23.4509 31.6878 23.2965 31.719 23.1528 31.7795C23.0091 31.8401 22.879 31.9288 22.7701 32.0404C22.6613 32.152 22.5758 32.2842 22.5188 32.4293C22.4618 32.5744 22.4344 32.7295 22.4382 32.8854V34.1949C22.4381 34.3926 22.4882 34.5871 22.5838 34.7602C22.6794 34.9333 22.8173 35.0793 22.9847 35.1845L27.192 37.8332C27.3784 37.9508 27.5943 38.0133 27.8148 38.0133C28.0352 38.0133 28.2512 37.9508 28.4376 37.8332L32.6449 35.1845C32.8122 35.0793 32.9502 34.9333 33.0458 34.7602C33.1414 34.5871 33.1914 34.3926 33.1913 34.1949V25.9346L37.085 29.781V38.3958L32.597 42.8836C32.4884 42.9922 32.4022 43.1211 32.3434 43.2631C32.2846 43.405 32.2544 43.5571 32.2545 43.7107V45.9965C31.9898 46.0496 31.7516 46.1926 31.5803 46.4013C31.4091 46.61 31.3153 46.8715 31.3149 47.1415V55.0776C30.4074 55.3914 29.5196 55.7594 28.6563 56.1797L23.3722 50.881V43.7072C23.3723 43.5536 23.3421 43.4015 23.2833 43.2595C23.2246 43.1176 23.1384 42.9887 23.0297 42.8801L18.5418 38.3972V29.781L22.4361 25.9346V27.4115C22.4436 27.7165 22.57 28.0064 22.7883 28.2195C23.0066 28.4325 23.2996 28.5517 23.6047 28.5517C23.9097 28.5517 24.2027 28.4325 24.421 28.2195C24.6394 28.0064 24.7658 27.7165 24.7732 27.4115V23.1389C24.7729 22.9086 24.7045 22.6835 24.5767 22.4919C24.4489 22.3003 24.2673 22.1506 24.0548 22.0618C23.8424 21.9729 23.6083 21.9488 23.3822 21.9924C23.156 22.036 22.9478 22.1454 22.7835 22.3069L16.5528 28.4623C16.4427 28.5709 16.3553 28.7004 16.2957 28.8431C16.236 28.9858 16.2053 29.1389 16.2053 29.2936V38.8748C16.2055 39.1845 16.3287 39.4815 16.5478 39.7004L21.0358 44.1883V50.9196L14.1488 57.8065H4.28536C3.76878 57.8061 3.27346 57.6007 2.90818 57.2354C2.5429 56.8702 2.33752 56.3749 2.33715 55.8583V16.9842H76.6625V28.2182C76.6587 28.3741 76.6861 28.5291 76.7431 28.6743C76.8001 28.8194 76.8856 28.9516 76.9944 29.0632C77.1033 29.1748 77.2334 29.2635 77.3771 29.324C77.5208 29.3846 77.6752 29.4158 77.8311 29.4158C77.987 29.4158 78.1413 29.3846 78.285 29.324C78.4287 29.2635 78.5588 29.1748 78.6677 29.0632C78.7766 28.9516 78.8621 28.8194 78.9191 28.6743C78.9761 28.5291 79.0035 28.3741 78.9997 28.2182V4.28527C78.9969 3.14972 78.5446 2.06147 77.7417 1.25845C76.9388 0.45543 75.8506 0.00297117 74.715 0ZM49.0176 33.1871L47.5406 31.8177L49.8714 24.3078H51.2647L53.5934 31.8177L52.1164 33.1871C51.9979 33.2967 51.9034 33.4296 51.8387 33.5775C51.7741 33.7254 51.7408 33.8851 51.7409 34.0465V41.752H49.3946V34.0458C49.3944 33.8843 49.3608 33.7246 49.2959 33.5767C49.2311 33.4288 49.1363 33.2966 49.0176 33.1871ZM55.0001 44.0975V50.8838L49.7118 56.1776C48.8483 55.7576 47.9606 55.3895 47.0532 55.0755V47.1344C47.0528 46.8645 46.959 46.6029 46.7877 46.3942C46.6164 46.1856 46.3783 46.0425 46.1135 45.9894V44.0975H55.0036H55.0001ZM28.9855 58.6328C30.2125 57.9792 31.4997 57.4452 32.8291 57.0384C33.0685 56.9651 33.2781 56.8169 33.427 56.6156C33.5759 56.4143 33.6562 56.1706 33.6562 55.9202V48.3019H44.7189V55.9209C44.7189 56.1713 44.7992 56.415 44.9481 56.6163C45.097 56.8176 45.3066 56.9658 45.546 57.0391C46.8754 57.4457 48.1626 57.9794 49.3896 58.6328C49.6108 58.7505 49.8639 58.7941 50.1117 58.7571C50.3595 58.7202 50.5889 58.6046 50.766 58.4275L56.1549 53.0387L62.9174 59.801L63.9766 60.8602L58.587 66.2518C58.4099 66.429 58.2943 66.6583 58.2574 66.9061C58.2204 67.1539 58.264 67.407 58.3817 67.6282C59.0353 68.8551 59.569 70.1423 59.9754 71.4718C60.0486 71.7109 60.1966 71.9203 60.3977 72.0692C60.5987 72.2181 60.8421 72.2985 61.0923 72.2989H68.7114V76.6608H56.8287C56.6395 73.8191 55.7671 71.0651 54.2857 68.6328C52.8043 66.2004 50.7577 64.1615 48.3196 62.6894C45.8816 61.2172 43.1243 60.3553 40.2819 60.1768C37.4394 59.9983 34.5959 60.5085 31.9929 61.6641C31.7205 61.797 31.5103 62.0304 31.4066 62.3151C31.3029 62.5999 31.3137 62.9138 31.4369 63.1907C31.5601 63.4676 31.786 63.6859 32.0669 63.7996C32.3479 63.9133 32.662 63.9134 32.9431 63.8001C35.1905 62.8013 37.6449 62.3568 40.0999 62.5042C42.5548 62.6515 44.9385 63.3862 47.0503 64.6466C49.1621 65.9069 50.9404 67.6561 52.2355 69.7468C53.5305 71.8375 54.3045 74.2087 54.4923 76.6608H47.9141C47.6313 74.5468 46.5907 72.6074 44.9857 71.2028C43.3807 69.7982 41.3204 69.024 39.1875 69.024C37.0547 69.024 34.9944 69.7982 33.3894 71.2028C31.7844 72.6074 30.7438 74.5468 30.461 76.6608H23.8821C24.1588 72.8301 25.8771 69.2466 28.6908 66.6323C28.9081 66.4182 29.0331 66.1277 29.0392 65.8227C29.0452 65.5178 28.9318 65.2225 28.7232 65C28.5145 64.7775 28.2271 64.6453 27.9224 64.6318C27.6177 64.6182 27.3197 64.7243 27.0921 64.9275C23.828 67.9983 21.8455 72.1896 21.5422 76.6608H9.66651V72.3003H17.2849C17.5353 72.3003 17.7791 72.2199 17.9804 72.071C18.1817 71.9221 18.3299 71.7126 18.4032 71.4732C18.8096 70.1437 19.3433 68.8565 19.997 67.6296C20.1146 67.4084 20.1582 67.1553 20.1212 66.9075C20.0843 66.6598 19.9687 66.4304 19.7916 66.2532L14.4027 60.8645L15.4619 59.8053L22.2251 53.0373L27.614 58.4261C27.7906 58.6023 28.019 58.7175 28.2658 58.7547C28.5125 58.7919 28.7647 58.7492 28.9855 58.6328ZM2.33715 14.6471V4.28527C2.33752 3.7687 2.5429 3.27339 2.90818 2.90812C3.27346 2.54284 3.76878 2.33747 4.28536 2.3371H74.715C75.2315 2.33766 75.7266 2.54311 76.0917 2.90836C76.4568 3.27362 76.6621 3.76882 76.6625 4.28527V14.6471H2.33715Z" fill="white"/>
<path d="M74.715 0H4.28536C3.14967 0.00278556 2.06129 0.455162 1.25823 1.2582C0.455172 2.06124 0.00278562 3.1496 0 4.28527L0 55.859C0.00278562 56.9947 0.455172 58.083 1.25823 58.8861C2.06129 59.6891 3.14967 60.1415 4.28536 60.1443H11.8236C11.6476 60.3693 11.5602 60.6509 11.5778 60.936C11.5954 61.2212 11.7169 61.4899 11.9193 61.6915L17.5339 67.3061C17.1136 68.1689 16.7456 69.0562 16.4318 69.9632H8.49125C8.18142 69.9632 7.88428 70.0862 7.66519 70.3053C7.44611 70.5244 7.32303 70.8215 7.32303 71.1314V77.8318C7.32303 78.1416 7.44611 78.4388 7.66519 78.6578C7.88428 78.8769 8.18142 79 8.49125 79H31.5498C31.8596 79 32.1568 78.8769 32.3758 78.6578C32.5949 78.4388 32.718 78.1416 32.718 77.8318C32.718 76.1169 33.3993 74.4721 34.612 73.2595C35.8246 72.0468 37.4694 71.3656 39.1844 71.3656C40.8994 71.3656 42.5441 72.0468 43.7568 73.2595C44.9695 74.4721 45.6508 76.1169 45.6508 77.8318C45.6508 77.9852 45.681 78.1371 45.7397 78.2789C45.7984 78.4206 45.8844 78.5494 45.9929 78.6578C46.1014 78.7663 46.2302 78.8524 46.3719 78.9111C46.5137 78.9698 46.6656 79 46.819 79H69.8881C70.1979 79 70.495 78.8769 70.7141 78.6578C70.9332 78.4388 71.0563 78.1416 71.0563 77.8318V71.1328C71.0563 70.8229 70.9332 70.5258 70.7141 70.3067C70.495 70.0877 70.1979 69.9646 69.8881 69.9646H61.9447C61.6309 69.0574 61.2629 68.1698 60.8426 67.3068L66.4558 61.6908C66.6577 61.4889 66.7787 61.2201 66.7961 60.9351C66.8135 60.65 66.726 60.3685 66.5501 60.1436H74.7129C75.8486 60.1408 76.937 59.6884 77.74 58.8854C78.5431 58.0823 78.9955 56.994 78.9982 55.8583V26.9494C78.9908 26.6445 78.8644 26.3545 78.646 26.1415C78.4277 25.9285 78.1347 25.8092 77.8297 25.8092C77.5246 25.8092 77.2316 25.9285 77.0133 26.1415C76.795 26.3545 76.6686 26.6445 76.6611 26.9494V55.859C76.6607 56.3756 76.4553 56.8709 76.0901 57.2361C75.7248 57.6014 75.2295 57.8068 74.7129 57.8072H64.227L57.34 50.9196V42.9265C57.3397 42.6168 57.2165 42.3199 56.9975 42.1009C56.7784 41.8819 56.4815 41.7587 56.1718 41.7583H54.0682V34.5564L55.7154 33.0338C55.8783 32.8837 55.9952 32.6905 56.0525 32.4766C56.1097 32.2626 56.105 32.0368 56.0389 31.8255L53.2347 22.7872C53.1602 22.5492 53.0114 22.3412 52.8102 22.1936C52.609 22.0461 52.3659 21.9667 52.1164 21.9672H49.0007C48.752 21.9678 48.5101 22.0476 48.3098 22.1951C48.1096 22.3425 47.9616 22.55 47.8873 22.7872L45.0832 31.8255C45.017 32.0368 45.0123 32.2626 45.0696 32.4766C45.1269 32.6905 45.2438 32.8837 45.4067 33.0338L47.0567 34.5564V41.752H44.9538C44.6439 41.752 44.3468 41.8751 44.1277 42.0942C43.9086 42.3132 43.7855 42.6104 43.7855 42.9202V45.9585H34.5903V44.1904L39.0782 39.7026C39.2973 39.4836 39.4205 39.1866 39.4207 38.8769V29.2922C39.4202 29.1372 39.3888 28.9839 39.3284 28.8412C39.268 28.6984 39.1799 28.5692 39.069 28.4608L32.8369 22.3055C32.6726 22.1437 32.4641 22.034 32.2377 21.9903C32.0113 21.9466 31.777 21.9708 31.5643 22.0599C31.3516 22.149 31.17 22.2989 31.0423 22.4909C30.9146 22.6829 30.8464 22.9083 30.8465 23.1389V33.5549L27.8137 35.4693L24.7754 33.5563V32.8854C24.7792 32.7295 24.7518 32.5744 24.6948 32.4293C24.6378 32.2842 24.5523 32.152 24.4434 32.0404C24.3345 31.9288 24.2044 31.8401 24.0607 31.7795C23.917 31.719 23.7627 31.6878 23.6068 31.6878C23.4509 31.6878 23.2965 31.719 23.1528 31.7795C23.0091 31.8401 22.879 31.9288 22.7701 32.0404C22.6613 32.152 22.5758 32.2842 22.5188 32.4293C22.4618 32.5744 22.4344 32.7295 22.4382 32.8854V34.1949C22.4381 34.3926 22.4882 34.5871 22.5838 34.7602C22.6794 34.9333 22.8173 35.0793 22.9847 35.1845L27.192 37.8332C27.3784 37.9508 27.5943 38.0133 27.8148 38.0133C28.0352 38.0133 28.2512 37.9508 28.4376 37.8332L32.6449 35.1845C32.8122 35.0793 32.9502 34.9333 33.0458 34.7602C33.1414 34.5871 33.1914 34.3926 33.1913 34.1949V25.9346L37.085 29.781V38.3958L32.597 42.8836C32.4884 42.9922 32.4022 43.1211 32.3434 43.2631C32.2846 43.405 32.2544 43.5571 32.2545 43.7107V45.9965C31.9898 46.0496 31.7516 46.1926 31.5803 46.4013C31.4091 46.61 31.3153 46.8715 31.3149 47.1415V55.0776C30.4074 55.3914 29.5196 55.7594 28.6563 56.1797L23.3722 50.881V43.7072C23.3723 43.5536 23.3421 43.4015 23.2833 43.2595C23.2246 43.1176 23.1384 42.9887 23.0297 42.8801L18.5418 38.3972V29.781L22.4361 25.9346V27.4115C22.4436 27.7165 22.57 28.0064 22.7883 28.2195C23.0066 28.4325 23.2996 28.5517 23.6047 28.5517C23.9097 28.5517 24.2027 28.4325 24.421 28.2195C24.6394 28.0064 24.7658 27.7165 24.7732 27.4115V23.1389C24.7729 22.9086 24.7045 22.6835 24.5767 22.4919C24.4489 22.3003 24.2673 22.1506 24.0548 22.0618C23.8424 21.9729 23.6083 21.9488 23.3822 21.9924C23.156 22.036 22.9478 22.1454 22.7835 22.3069L16.5528 28.4623C16.4427 28.5709 16.3553 28.7004 16.2957 28.8431C16.236 28.9858 16.2053 29.1389 16.2053 29.2936V38.8748C16.2055 39.1845 16.3287 39.4815 16.5478 39.7004L21.0358 44.1883V50.9196L14.1488 57.8065H4.28536C3.76878 57.8061 3.27346 57.6007 2.90818 57.2354C2.5429 56.8702 2.33752 56.3749 2.33715 55.8583V16.9842H76.6625V28.2182C76.6587 28.3741 76.6861 28.5291 76.7431 28.6743C76.8001 28.8194 76.8856 28.9516 76.9944 29.0632C77.1033 29.1748 77.2334 29.2635 77.3771 29.324C77.5208 29.3846 77.6752 29.4158 77.8311 29.4158C77.987 29.4158 78.1413 29.3846 78.285 29.324C78.4287 29.2635 78.5588 29.1748 78.6677 29.0632C78.7766 28.9516 78.8621 28.8194 78.9191 28.6743C78.9761 28.5291 79.0035 28.3741 78.9997 28.2182V4.28527C78.9969 3.14972 78.5446 2.06147 77.7417 1.25845C76.9388 0.45543 75.8506 0.00297117 74.715 0ZM49.0176 33.1871L47.5406 31.8177L49.8714 24.3078H51.2647L53.5934 31.8177L52.1164 33.1871C51.9979 33.2967 51.9034 33.4296 51.8387 33.5775C51.7741 33.7254 51.7408 33.8851 51.7409 34.0465V41.752H49.3946V34.0458C49.3944 33.8843 49.3608 33.7246 49.2959 33.5767C49.2311 33.4288 49.1363 33.2966 49.0176 33.1871ZM55.0001 44.0975V50.8838L49.7118 56.1776C48.8483 55.7576 47.9606 55.3895 47.0532 55.0755V47.1344C47.0528 46.8645 46.959 46.6029 46.7877 46.3942C46.6164 46.1856 46.3783 46.0425 46.1135 45.9894V44.0975H55.0036H55.0001ZM28.9855 58.6328C30.2125 57.9792 31.4997 57.4452 32.8291 57.0384C33.0685 56.9651 33.2781 56.8169 33.427 56.6156C33.5759 56.4143 33.6562 56.1706 33.6562 55.9202V48.3019H44.7189V55.9209C44.7189 56.1713 44.7992 56.415 44.9481 56.6163C45.097 56.8176 45.3066 56.9658 45.546 57.0391C46.8754 57.4457 48.1626 57.9794 49.3896 58.6328C49.6108 58.7505 49.8639 58.7941 50.1117 58.7571C50.3595 58.7202 50.5889 58.6046 50.766 58.4275L56.1549 53.0387L62.9174 59.801L63.9766 60.8602L58.587 66.2518C58.4099 66.429 58.2943 66.6583 58.2574 66.9061C58.2204 67.1539 58.264 67.407 58.3817 67.6282C59.0353 68.8551 59.569 70.1423 59.9754 71.4718C60.0486 71.7109 60.1966 71.9203 60.3977 72.0692C60.5987 72.2181 60.8421 72.2985 61.0923 72.2989H68.7114V76.6608H56.8287C56.6395 73.8191 55.7671 71.0651 54.2857 68.6328C52.8043 66.2004 50.7577 64.1615 48.3196 62.6894C45.8816 61.2172 43.1243 60.3553 40.2819 60.1768C37.4394 59.9983 34.5959 60.5085 31.9929 61.6641C31.7205 61.797 31.5103 62.0304 31.4066 62.3151C31.3029 62.5999 31.3137 62.9138 31.4369 63.1907C31.5601 63.4676 31.786 63.6859 32.0669 63.7996C32.3479 63.9133 32.662 63.9134 32.9431 63.8001C35.1905 62.8013 37.6449 62.3568 40.0999 62.5042C42.5548 62.6515 44.9385 63.3862 47.0503 64.6466C49.1621 65.9069 50.9404 67.6561 52.2355 69.7468C53.5305 71.8375 54.3045 74.2087 54.4923 76.6608H47.9141C47.6313 74.5468 46.5907 72.6074 44.9857 71.2028C43.3807 69.7982 41.3204 69.024 39.1875 69.024C37.0547 69.024 34.9944 69.7982 33.3894 71.2028C31.7844 72.6074 30.7438 74.5468 30.461 76.6608H23.8821C24.1588 72.8301 25.8771 69.2466 28.6908 66.6323C28.9081 66.4182 29.0331 66.1277 29.0392 65.8227C29.0452 65.5178 28.9318 65.2225 28.7232 65C28.5145 64.7775 28.2271 64.6453 27.9224 64.6318C27.6177 64.6182 27.3197 64.7243 27.0921 64.9275C23.828 67.9983 21.8455 72.1896 21.5422 76.6608H9.66651V72.3003H17.2849C17.5353 72.3003 17.7791 72.2199 17.9804 72.071C18.1817 71.9221 18.3299 71.7126 18.4032 71.4732C18.8096 70.1437 19.3433 68.8565 19.997 67.6296C20.1146 67.4084 20.1582 67.1553 20.1212 66.9075C20.0843 66.6598 19.9687 66.4304 19.7916 66.2532L14.4027 60.8645L15.4619 59.8053L22.2251 53.0373L27.614 58.4261C27.7906 58.6023 28.019 58.7175 28.2658 58.7547C28.5125 58.7919 28.7647 58.7492 28.9855 58.6328ZM2.33715 14.6471V4.28527C2.33752 3.7687 2.5429 3.27339 2.90818 2.90812C3.27346 2.54284 3.76878 2.33747 4.28536 2.3371H74.715C75.2315 2.33766 75.7266 2.54311 76.0917 2.90836C76.4568 3.27362 76.6621 3.76882 76.6625 4.28527V14.6471H2.33715Z" fill="url(#paint0_linear_70_982)"/>
<defs>
<linearGradient id="paint0_linear_70_982" x1="66.2448" y1="6.87947" x2="-18.4964" y2="52.1912" gradientUnits="userSpaceOnUse">
<stop stop-color="#4C519F"/>
<stop offset="0.182292" stop-color="#785BB9"/>
<stop offset="0.411458" stop-color="#68338A"/>
<stop offset="0.734375" stop-color="#BD468B"/>
<stop offset="1" stop-color="#F7053F"/>
</linearGradient>
</defs>
</svg>
