<svg width="384" height="416" viewBox="0 0 384 416" fill="none" xmlns="http://www.w3.org/2000/svg">
<path d="M105.83 231.53L278.17 328.47M278.17 87.53L105.83 184.47M112 208C112 234.51 90.5097 256 64 256C37.4903 256 16 234.51 16 208C16 181.49 37.4903 160 64 160C90.5097 160 112 181.49 112 208ZM368 64C368 90.5097 346.51 112 320 112C293.49 112 272 90.5097 272 64C272 37.4903 293.49 16 320 16C346.51 16 368 37.4903 368 64ZM368 352C368 378.51 346.51 400 320 400C293.49 400 272 378.51 272 352C272 325.49 293.49 304 320 304C346.51 304 368 325.49 368 352Z" stroke="#4C519F" stroke-width="32" stroke-linecap="round" stroke-linejoin="round"/>
</svg>
