<?xml version="1.0" standalone="no"?>
<!DOCTYPE svg PUBLIC "-//W3C//DTD SVG 20010904//EN"
 "http://www.w3.org/TR/2001/REC-SVG-20010904/DTD/svg10.dtd">
<svg version="1.0" xmlns="http://www.w3.org/2000/svg"
 width="201.000000pt" height="201.000000pt" viewBox="0 0 201.000000 201.000000"
 preserveAspectRatio="xMidYMid meet">
<metadata>
Created by potrace 1.11, written by Peter Selinger 2001-2013
</metadata>
<g transform="translate(0.000000,201.000000) scale(0.100000,-0.100000)"
fill="#000000" stroke="none">
<path d="M920 1999 c-237 -20 -475 -132 -637 -300 -119 -123 -212 -289 -253
-449 -29 -109 -36 -322 -15 -425 21 -106 21 -105 50 -180 124 -330 424 -575
775 -633 91 -15 320 -6 402 16 305 82 563 302 678 579 55 133 72 215 76 368 3
147 -7 220 -48 345 -119 367 -470 646 -850 676 -40 3 -77 6 -83 8 -5 1 -48 -1
-95 -5z"/>
</g>
</svg>
